<?xml version="1.0" encoding="utf-8"?>
<!-- Generator: Adobe Illustrator 18.1.1, SVG Export Plug-In . SVG Version: 6.00 Build 0)  -->
<svg version="1.1" id="Layer_1" xmlns="http://www.w3.org/2000/svg" xmlns:xlink="http://www.w3.org/1999/xlink" x="0px" y="0px"
	 viewBox="0 0 111.5 32" enable-background="new 0 0 111.5 32" xml:space="preserve">
<g>
	<path fill="#FFD110" d="M-111.1,20.6c0,6.5,5.3,11.8,11.9,11.8h434.5V20c0-10.9-8.9-19.7-19.9-19.7h-426.5V20.6z"/>
</g>
<g>
	<defs>
		<path id="SVGID_6_" d="M-111.1,20.6c0,6.5,5.3,11.8,13.5,11.8h430.3L330.9,20c0-10.9-8.8-19.7-17.9-19.7h-422.3L-111.1,20.6z"/>
	</defs>
	<clipPath id="SVGID_2_">
		<use xlink:href="#SVGID_6_"  overflow="visible"/>
	</clipPath>
	<g clip-path="url(#SVGID_2_)">
		<g opacity="0.7">
			<path fill="#283D3D" d="M0.5,44.1h-115.8V-9.8H0.5V44.1z M-114.3,43H-0.5V-8.8h-113.8V43z"/>
		</g>
		<g opacity="0.7">
			<path fill="#283D3D" d="M112.1,44.1H-0.5V-9.8h112.6V44.1z M0.5,43.1h110.6V-8.8H0.5V43.1z"/>
		</g>
		<g opacity="0.7">
			<path fill="#283D3D" d="M223.4,44.1H110.9V-9.8h112.5V44.1z M111.9,43.1h110.5V-8.8H111.9V43.1z"/>
		</g>
	</g>
</g>
<g>
	<path fill="#283D3D" d="M37.1,11h1.5l4,9.1h-1.7L40,17.9h-4.3l-0.9,2.2h-1.6L37.1,11z M39.4,16.5l-1.6-3.6l-1.5,3.6H39.4z"/>
	<path fill="#283D3D" d="M44.9,16.3v-5.2h1.6v5.1c0,1.7,0.9,2.6,2.3,2.6c1.4,0,2.3-0.8,2.3-2.5v-5.2h1.6v5.1c0,2.7-1.5,4-3.9,4
		C46.4,20.2,44.9,18.9,44.9,16.3z"/>
	<path fill="#283D3D" d="M58.3,12.5h-2.9v-1.5h7.3v1.5h-2.9v7.6h-1.6V12.5z"/>
	<path fill="#283D3D" d="M64.9,15.6L64.9,15.6c0-2.6,2-4.7,4.7-4.7c2.8,0,4.7,2.1,4.7,4.6v0c0,2.5-2,4.7-4.7,4.7
		S64.9,18.2,64.9,15.6z M72.7,15.6L72.7,15.6c0-1.8-1.3-3.2-3.1-3.2s-3,1.4-3,3.2v0c0,1.8,1.3,3.2,3.1,3.2
		C71.4,18.8,72.7,17.4,72.7,15.6z"/>
</g>
</svg>
