<?xml version="1.0" encoding="utf-8"?>
<!-- Generator: Adobe Illustrator 18.1.1, SVG Export Plug-In . SVG Version: 6.00 Build 0)  -->
<svg version="1.1" id="Layer_1" xmlns="http://www.w3.org/2000/svg" xmlns:xlink="http://www.w3.org/1999/xlink" x="0px" y="0px"
	 width="188px" height="25.6px" viewBox="0 0 188 25.6" enable-background="new 0 0 188 25.6" xml:space="preserve">
<rect x="-188" y="0" fill="#FFD110" width="188" height="25.6"/>
<rect x="0" y="0" fill="#FFD110" width="188" height="25.6"/>
<g>
	<path fill="#1C1C1C" d="M49.8,9.8c-0.4,0-0.7,0.2-0.7,0.6v2.3c0,0.5-0.2,0.8-0.7,0.9c0.5,0.1,0.7,0.4,0.7,0.9V17
		c0,0.2,0.1,0.3,0.2,0.4c0.1,0.1,0.3,0.1,0.6,0.1v1h-0.4c-1,0-1.4-0.5-1.4-1.4v-2.3c0-0.2,0-0.4-0.1-0.5c-0.1-0.1-0.2-0.1-0.4-0.1
		h-0.3v-1h0.3c0.2,0,0.3,0,0.4-0.1c0.1-0.1,0.1-0.3,0.1-0.5v-2.2c0-0.9,0.5-1.4,1.4-1.4h0.4L49.8,9.8C49.9,9.8,49.8,9.8,49.8,9.8z"
		/>
	<path fill="#1C1C1C" d="M138.5,18.4h-0.4v-1c0.3,0,0.5,0,0.6-0.1c0.1-0.1,0.2-0.2,0.2-0.4v-2.5c0-0.5,0.2-0.8,0.7-0.9
		c-0.5-0.1-0.7-0.4-0.7-0.9v-2.3c0-0.2-0.1-0.4-0.2-0.5c-0.1-0.1-0.2-0.1-0.3-0.1h0l-0.2,0v-1h0.4c1,0,1.4,0.5,1.4,1.4v2.2
		c0,0.2,0,0.4,0.1,0.5c0.1,0.1,0.2,0.1,0.4,0.1h0.3v1h-0.3c-0.2,0-0.3,0-0.4,0.1c-0.1,0.1-0.1,0.3-0.1,0.5V17
		C140,18,139.5,18.4,138.5,18.4z"/>
</g>
<g>
	<path fill="#1C1C1C" d="M83.6,13.4L83.6,13.4c0-2.2,1.6-3.9,3.9-3.9c1.4,0,2.2,0.5,2.9,1.2l-0.8,1c-0.6-0.6-1.2-0.9-2.1-0.9
		c-1.4,0-2.5,1.2-2.5,2.6v0c0,1.5,1,2.7,2.5,2.7c0.9,0,1.5-0.4,2.2-1l0.8,0.9c-0.8,0.8-1.6,1.3-3,1.3C85.2,17.3,83.6,15.5,83.6,13.4
		z"/>
	<path fill="#1C1C1C" d="M92.4,13.4L92.4,13.4c0-2.1,1.6-3.9,3.9-3.9c2.3,0,3.9,1.7,3.9,3.9v0c0,2.1-1.6,3.9-3.9,3.9
		C94,17.3,92.4,15.5,92.4,13.4z M98.8,13.4L98.8,13.4c0-1.5-1.1-2.7-2.5-2.7c-1.5,0-2.5,1.2-2.5,2.6v0c0,1.5,1.1,2.7,2.5,2.7
		C97.8,16,98.8,14.9,98.8,13.4z"/>
	<path fill="#1C1C1C" d="M102.9,9.6h1.2l4,5.2V9.6h1.3v7.5h-1.1l-4.1-5.3v5.3h-1.3V9.6z"/>
	<path fill="#1C1C1C" d="M112.4,9.6h5.6v1.2h-4.3v2h3.8v1.2h-3.8v3.1h-1.3V9.6z"/>
	<path fill="#1C1C1C" d="M120.6,9.6h1.3v7.5h-1.3V9.6z"/>
	<path fill="#1C1C1C" d="M124.6,13.4L124.6,13.4c0-2.1,1.6-3.9,3.9-3.9c1.3,0,2.1,0.4,2.9,1l-0.8,1c-0.6-0.5-1.1-0.8-2.1-0.8
		c-1.4,0-2.4,1.2-2.4,2.6v0c0,1.5,1,2.7,2.5,2.7c0.7,0,1.3-0.2,1.8-0.6v-1.4h-1.9v-1.1h3.2v3.1c-0.7,0.6-1.8,1.2-3.1,1.2
		C126.2,17.3,124.6,15.6,124.6,13.4z"/>
</g>
<g>
	<path fill="#1C1C1C" d="M72.6,17.9l0.3-1.4l-1-0.2c0-0.5-0.1-1-0.3-1.5l0.8-0.5l-0.8-1.2l-0.8,0.5c-0.3-0.4-0.8-0.7-1.2-0.9l0.2-1
		l-1.4-0.3l-0.2,1c-0.5,0-1,0.1-1.5,0.2l-0.5-0.8L65,12.5l0.5,0.8c-0.4,0.3-0.7,0.8-0.9,1.2l-0.9-0.2l-0.3,1.4l0.9,0.2
		c0,0.5,0.1,1,0.3,1.5L63.7,18l0.8,1.2l0.8-0.5c0.3,0.4,0.8,0.7,1.3,0.9l-0.2,0.9l1.4,0.3l0.2-0.9c0.5,0,1-0.1,1.5-0.3l0.5,0.8
		l1.2-0.8l-0.5-0.8c0.4-0.3,0.7-0.8,0.9-1.2L72.6,17.9z M69.3,16.4c-0.2,0.7-0.8,1.1-1.5,0.9s-1.1-0.8-0.9-1.5s0.8-1.1,1.5-0.9
		C69.1,15,69.5,15.7,69.3,16.4z"/>
	<path fill="#1C1C1C" d="M65,10.3l-0.3-1.4l-1,0.2c-0.2-0.5-0.5-0.9-0.9-1.2L63.4,7l-1.2-0.8l-0.5,0.8c-0.5-0.2-1-0.3-1.5-0.3
		l-0.2-1l-1.4,0.3l0.2,1c-0.5,0.2-0.9,0.5-1.2,0.9l-0.8-0.5l-0.8,1.2l0.8,0.5c-0.2,0.5-0.3,1-0.3,1.5L55.5,11l0.3,1.4l0.9-0.2
		c0.2,0.5,0.5,0.9,0.9,1.3l-0.5,0.8l1.3,0.8l0.5-0.8c0.5,0.2,1,0.3,1.5,0.3l0.2,0.9l1.4-0.3l-0.2-0.9c0.5-0.2,0.9-0.5,1.2-0.9
		l0.8,0.5l0.8-1.2L63.8,12c0.2-0.5,0.3-1,0.2-1.5L65,10.3z M61.4,10.4c0.2,0.7-0.3,1.3-0.9,1.5s-1.3-0.3-1.5-0.9
		c-0.2-0.7,0.3-1.3,0.9-1.5S61.3,9.7,61.4,10.4z"/>
</g>
</svg>
