<?xml version="1.0" encoding="utf-8"?>
<!-- Generator: Adobe Illustrator 18.1.1, SVG Export Plug-In . SVG Version: 6.00 Build 0)  -->
<svg version="1.1" id="Layer_1" xmlns="http://www.w3.org/2000/svg" xmlns:xlink="http://www.w3.org/1999/xlink" x="0px" y="0px"
	 width="188px" height="25.6px" viewBox="0 0 188 25.6" enable-background="new 0 0 188 25.6" xml:space="preserve">
<rect x="0" y="0" opacity="0.7" fill="#283D3D" width="188" height="25.6"/>
<rect x="0" y="0" opacity="0.7" fill="#283D3D" width="188" height="25.6"/>
<g>
	<g>
		<g>
			<g>
				<path fill="#FFFFFF" d="M75.9,11.3c-1.4,0-2.5,1.1-2.5,2.5s1.1,2.5,2.5,2.5c1.4,0,2.5-1.1,2.5-2.5S77.3,11.3,75.9,11.3z
					 M75.9,15.7c-1.1,0-1.9-0.9-1.9-1.9s0.9-1.9,1.9-1.9s1.9,0.9,1.9,1.9S76.9,15.7,75.9,15.7z"/>
			</g>
		</g>
		<g>
			<g>
				<g>
					<path fill="#FFFFFF" d="M75.9,20.7c-3.8,0-6.9-3.1-6.9-6.9s3.1-6.9,6.9-6.9s6.9,3.1,6.9,6.9S79.7,20.7,75.9,20.7z M75.9,7.7
						c-3.4,0-6.1,2.7-6.1,6.1s2.7,6.1,6.1,6.1s6.1-2.7,6.1-6.1S79.2,7.7,75.9,7.7z"/>
				</g>
				<g>
					<path fill="#FFFFFF" d="M75.9,7c3.7,0,6.8,3,6.8,6.8c0,3.7-3,6.8-6.8,6.8c-3.7,0-6.8-3-6.8-6.8C69.1,10,72.1,7,75.9,7
						 M75.9,20.1c3.5,0,6.3-2.8,6.3-6.3c0-3.5-2.8-6.3-6.3-6.3s-6.3,2.8-6.3,6.3C69.6,17.2,72.4,20.1,75.9,20.1 M75.9,6.7
						c-3.9,0-7.1,3.2-7.1,7.1c0,3.9,3.2,7.1,7.1,7.1s7.1-3.2,7.1-7.1C83,9.9,79.8,6.7,75.9,6.7L75.9,6.7z M75.9,19.7
						c-3.3,0-6-2.7-6-6s2.7-6,6-6s6,2.7,6,6S79.1,19.7,75.9,19.7L75.9,19.7z"/>
				</g>
			</g>
		</g>
		<g>
			<g>
				<path fill="#FFFFFF" d="M75.9,14.9c-0.6,0-1.2-0.5-1.2-1.2c0-0.6,0.5-1.2,1.2-1.2c0.6,0,1.2,0.5,1.2,1.2
					C77,14.4,76.5,14.9,75.9,14.9z M75.9,12.7c-0.6,0-1.1,0.5-1.1,1.1c0,0.6,0.5,1.1,1.1,1.1c0.6,0,1.1-0.5,1.1-1.1
					C76.9,13.2,76.4,12.7,75.9,12.7z"/>
				<path fill="#FFFFFF" d="M75.9,15c-0.7,0-1.3-0.6-1.3-1.3s0.6-1.3,1.3-1.3c0.7,0,1.3,0.6,1.3,1.3S76.6,15,75.9,15z M75.9,12.8
					c-0.5,0-0.9,0.4-0.9,0.9s0.4,0.9,0.9,0.9s0.9-0.4,0.9-0.9S76.4,12.8,75.9,12.8z"/>
			</g>
		</g>
	</g>
	<g>
		<path fill="#FFFFFF" d="M72,11.2l-0.4-0.3c0.8-1.1,1.9-1.9,3.3-2.2l0.1,0.5C73.7,9.5,72.7,10.2,72,11.2z"/>
	</g>
	<g>
		<path fill="#FFFFFF" d="M71.4,12.6l-0.5-0.1c0.1-0.4,0.2-0.8,0.4-1.1l0.5,0.2C71.6,11.9,71.4,12.3,71.4,12.6z"/>
	</g>
	<g>
		<path fill="#FFFFFF" d="M71.2,13.4l-0.5,0c0-0.1,0-0.2,0-0.4l0.5,0.1C71.2,13.2,71.2,13.3,71.2,13.4z"/>
	</g>
</g>
<g>
	<path fill="#FFFFFF" d="M92.8,10.4c-0.4,0-0.7,0.1-0.9,0.2c-0.2,0.1-0.4,0.4-0.4,0.7c0,0.3,0.1,0.5,0.4,0.7
		c0.2,0.2,0.7,0.3,1.5,0.5c0.8,0.2,1.3,0.4,1.7,0.8s0.6,0.8,0.6,1.5s-0.2,1.2-0.7,1.6c-0.5,0.4-1.1,0.6-1.9,0.6
		c-1.2,0-2.2-0.4-3.1-1.2l0.8-1c0.8,0.7,1.5,1,2.4,1c0.4,0,0.7-0.1,1-0.3c0.2-0.2,0.4-0.4,0.4-0.7s-0.1-0.5-0.3-0.7
		c-0.2-0.2-0.6-0.3-1.2-0.4c-0.6-0.1-1-0.3-1.3-0.4c-0.3-0.1-0.5-0.3-0.8-0.4c-0.4-0.3-0.7-0.8-0.7-1.5c0-0.7,0.3-1.2,0.8-1.6
		s1.1-0.6,1.9-0.6c0.5,0,1,0.1,1.4,0.2c0.5,0.2,0.9,0.4,1.2,0.7l-0.7,1c-0.2-0.2-0.5-0.4-0.9-0.5C93.5,10.4,93.1,10.4,92.8,10.4z"/>
	<path fill="#FFFFFF" d="M99.3,15.1l-0.7,1.7h-1.3l3.3-7.5h1.3l3.3,7.5h-1.3l-0.8-1.7H99.3z M102.5,14l-1.4-3.1L99.8,14H102.5z"/>
	<path fill="#FFFFFF" d="M110.2,16.9h-1.4l-3-7.5h1.4l2.3,5.6l2.3-5.6h1.4L110.2,16.9z"/>
	<path fill="#FFFFFF" d="M120.7,9.4v1.2h-4v2h3.6v1.1h-3.6v2h4.1v1.2h-5.4V9.4H120.7z"/>
</g>
</svg>
