<?xml version="1.0" encoding="utf-8"?>
<!-- Generator: Adobe Illustrator 18.1.1, SVG Export Plug-In . SVG Version: 6.00 Build 0)  -->
<svg version="1.1" id="Layer_1" xmlns="http://www.w3.org/2000/svg" xmlns:xlink="http://www.w3.org/1999/xlink" x="0px" y="0px"
	 width="188px" height="25.6px" viewBox="0 0 188 25.6" enable-background="new 0 0 188 25.6" xml:space="preserve">
<rect x="-188" y="0" opacity="0.7" fill="#283D3D" width="188" height="25.6"/>
<rect x="-188" y="0" opacity="0.7" fill="#283D3D" width="188" height="25.6"/>
<rect x="0" y="0" opacity="0.7" fill="#283D3D" width="188" height="25.6"/>
<rect x="0" y="0" opacity="0.7" fill="#283D3D" width="188" height="25.6"/>
<g>
	<path fill="#FFFFFF" d="M91.2,17.1h-1.3V9.6h2l2.3,4.7l2.3-4.7h2v7.5h-1.3v-5.8l-2.6,5.2h-0.7l-2.6-5.2V17.1z"/>
	<path fill="#FFFFFF" d="M106.8,9.6v1.2h-4v2h3.6v1.1h-3.6v2h4.1v1.2h-5.4V9.6H106.8z"/>
	<path fill="#FFFFFF" d="M115.2,9.6h1.3v7.5h-1.4l-4.2-5.5v5.5h-1.3V9.6h1.3l4.3,5.6V9.6z"/>
	<path fill="#FFFFFF" d="M121.3,15.4c0.3,0.4,0.8,0.6,1.4,0.6c0.6,0,1-0.2,1.4-0.6c0.3-0.4,0.5-0.9,0.5-1.6V9.6h1.3v4.2
		c0,1.1-0.3,1.9-0.9,2.5s-1.4,0.9-2.3,0.9c-0.9,0-1.7-0.3-2.3-0.9c-0.6-0.6-0.9-1.4-0.9-2.5V9.6h1.3v4.1
		C120.8,14.4,121,15,121.3,15.4z"/>
</g>
<g>
	<path fill="none" stroke="#FFFFFF" stroke-width="1.1355" stroke-miterlimit="10" d="M78.3,18.8c0,0.7-0.6,1.3-1.3,1.3h-9.2
		c-0.7,0-1.3-0.6-1.3-1.3V7.9c0-0.7,0.6-1.3,1.3-1.3H77c0.7,0,1.3,0.6,1.3,1.3V18.8z"/>
	<path fill="#FFFFFF" d="M72.6,10.6c0,0.2-0.2,0.4-0.4,0.4h-2.9c-0.2,0-0.4-0.2-0.4-0.4v0c0-0.2,0.2-0.4,0.4-0.4h2.9
		C72.4,10.2,72.6,10.4,72.6,10.6L72.6,10.6z"/>
	<path fill="#FFFFFF" d="M76,15.4c0,0.2-0.2,0.4-0.4,0.4h-6.3c-0.2,0-0.4-0.2-0.4-0.4v0c0-0.2,0.2-0.4,0.4-0.4h6.3
		C75.8,15,76,15.2,76,15.4L76,15.4z"/>
	<path fill="#FFFFFF" d="M76,17.8c0,0.2-0.2,0.4-0.4,0.4h-2.1c-0.2,0-0.4-0.2-0.4-0.4v0c0-0.2,0.2-0.4,0.4-0.4h2.1
		C75.8,17.4,76,17.6,76,17.8L76,17.8z"/>
	<path fill="#FFFFFF" d="M76,10.6c0,0.2-0.2,0.4-0.4,0.4h-2.1c-0.2,0-0.4-0.2-0.4-0.4v0c0-0.2,0.2-0.4,0.4-0.4h2.1
		C75.8,10.2,76,10.4,76,10.6L76,10.6z"/>
	<path fill="#FFFFFF" d="M66.1,11.9v2.3h12.5v-2.3H66.1z M70.9,13.4h-1.7c-0.2,0-0.4-0.2-0.4-0.4c0-0.2,0.2-0.4,0.4-0.4h1.7
		c0.2,0,0.4,0.2,0.4,0.4C71.3,13.2,71.1,13.4,70.9,13.4z M75.6,13.4h-3.3c-0.2,0-0.4-0.2-0.4-0.4c0-0.2,0.2-0.4,0.4-0.4h3.3
		c0.2,0,0.4,0.2,0.4,0.4C75.9,13.2,75.8,13.4,75.6,13.4z"/>
	<path fill="#FFFFFF" d="M72.7,17.8c0,0.2-0.2,0.4-0.4,0.4h-3.1c-0.2,0-0.4-0.2-0.4-0.4v0c0-0.2,0.2-0.4,0.4-0.4h3.1
		C72.5,17.4,72.7,17.6,72.7,17.8L72.7,17.8z"/>
	<line fill="none" stroke="#FFFFFF" stroke-width="0.3785" stroke-miterlimit="10" x1="66.6" y1="8.8" x2="78.4" y2="8.8"/>
</g>
</svg>
