<?xml version="1.0" encoding="utf-8"?>
<!-- Generator: Adobe Illustrator 18.1.1, SVG Export Plug-In . SVG Version: 6.00 Build 0)  -->
<svg version="1.1" id="Layer_1" xmlns="http://www.w3.org/2000/svg" xmlns:xlink="http://www.w3.org/1999/xlink" x="0px" y="0px"
	 viewBox="0 0 188 25.6" enable-background="new 0 0 188 25.6" xml:space="preserve">
<rect x="-188" y="0" opacity="0.7" fill="#283D3D" width="188" height="25.6"/>
<rect x="-188" y="0" opacity="0.7" fill="#283D3D" width="188" height="25.6"/>
<rect x="0" y="0" opacity="0.7" fill="#283D3D" width="188" height="25.6"/>
<rect x="0" y="0" opacity="0.7" fill="#283D3D" width="188" height="25.6"/>
<g>
	<path fill="#FFFFFF" d="M87.4,15.9c0.4,0,0.8-0.1,1.1-0.2s0.6-0.4,1-0.7l0.8,0.8c-0.8,0.9-1.8,1.3-2.9,1.3s-2.1-0.4-2.8-1.1
		s-1.1-1.6-1.1-2.8c0-1.1,0.4-2,1.1-2.8c0.8-0.7,1.7-1.1,2.9-1.1c1.2,0,2.1,0.4,2.9,1.3l-0.8,0.9c-0.4-0.3-0.7-0.6-1-0.7
		c-0.3-0.1-0.7-0.2-1.1-0.2c-0.8,0-1.4,0.2-1.9,0.7c-0.5,0.5-0.8,1.1-0.8,1.9s0.3,1.4,0.8,1.9C86.1,15.7,86.7,15.9,87.4,15.9z"/>
	<path fill="#FFFFFF" d="M99,16.1c-0.8,0.7-1.7,1.1-2.8,1.1c-1.1,0-2-0.4-2.8-1.1c-0.8-0.7-1.1-1.7-1.1-2.8s0.4-2,1.1-2.8
		s1.7-1.1,2.8-1.1c1.1,0,2,0.4,2.8,1.1s1.1,1.7,1.1,2.8S99.8,15.3,99,16.1z M98.1,11.4c-0.5-0.5-1.1-0.8-1.9-0.8
		c-0.7,0-1.4,0.3-1.9,0.8c-0.5,0.5-0.8,1.2-0.8,1.9s0.3,1.4,0.8,1.9c0.5,0.5,1.1,0.8,1.9,0.8c0.7,0,1.4-0.3,1.9-0.8
		c0.5-0.5,0.8-1.2,0.8-1.9S98.6,11.9,98.1,11.4z"/>
	<path fill="#FFFFFF" d="M108.4,9.6h1.3v7.5h-1.4l-4.2-5.5v5.5h-1.3V9.6h1.3l4.3,5.6V9.6z"/>
	<path fill="#FFFFFF" d="M114.1,10.8v2.1h3.3V14h-3.3v3.1h-1.3V9.6h5l0,1.2H114.1z"/>
	<path fill="#FFFFFF" d="M120.4,9.6h1.3v7.5h-1.3V9.6z"/>
	<path fill="#FFFFFF" d="M130,13.5h1.3V16c-0.7,0.8-1.7,1.2-3,1.2c-1.1,0-2-0.4-2.8-1.1s-1.1-1.6-1.1-2.8c0-1.1,0.4-2,1.1-2.8
		c0.8-0.7,1.7-1.1,2.8-1.1s2,0.3,2.7,0.9l-0.7,1c-0.3-0.3-0.6-0.4-0.9-0.5c-0.3-0.1-0.6-0.1-1-0.1c-0.8,0-1.4,0.2-1.9,0.7
		c-0.5,0.5-0.8,1.1-0.8,1.9s0.3,1.4,0.8,1.9s1.1,0.7,1.8,0.7c0.7,0,1.3-0.2,1.8-0.5V13.5z"/>
</g>
<g>
	<path fill="#FFFFFF" d="M72.5,17.8l0.3-1.4l-1-0.2c0-0.5-0.1-1-0.3-1.5l0.8-0.5l-0.8-1.2l-0.8,0.5c-0.3-0.4-0.8-0.7-1.2-0.9l0.2-1
		l-1.4-0.3l-0.2,1c-0.5,0-1,0.1-1.5,0.2l-0.5-0.8l-1.2,0.8l0.5,0.8c-0.4,0.3-0.7,0.8-0.9,1.2l-0.9-0.2l-0.3,1.4l0.9,0.2
		c0,0.5,0.1,1,0.3,1.5L63.6,18l0.8,1.2l0.8-0.5c0.3,0.4,0.8,0.7,1.3,0.9l-0.2,0.9l1.4,0.3l0.2-0.9c0.5,0,1-0.1,1.5-0.3l0.5,0.8
		l1.2-0.8l-0.5-0.8c0.4-0.3,0.7-0.8,0.9-1.2L72.5,17.8z M69.2,16.4c-0.2,0.7-0.8,1.1-1.5,0.9c-0.7-0.2-1.1-0.8-0.9-1.5
		c0.2-0.7,0.8-1.1,1.5-0.9C69,15,69.4,15.7,69.2,16.4z"/>
	<path fill="#FFFFFF" d="M64.9,10.3l-0.3-1.4l-1,0.2c-0.2-0.5-0.5-0.9-0.9-1.2L63.3,7L62,6.2L61.5,7c-0.5-0.2-1-0.3-1.5-0.3l-0.2-1
		l-1.4,0.3l0.2,1c-0.5,0.2-0.9,0.5-1.2,0.9l-0.8-0.5l-0.8,1.2l0.8,0.5c-0.2,0.5-0.3,1-0.3,1.5L55.4,11l0.3,1.4l0.9-0.2
		c0.2,0.5,0.5,0.9,0.9,1.3L57,14.2l1.3,0.8l0.5-0.8c0.5,0.2,1,0.3,1.5,0.3l0.2,0.9l1.4-0.3l-0.2-0.9c0.5-0.2,0.9-0.5,1.2-0.9
		l0.8,0.5l0.8-1.2L63.7,12c0.2-0.5,0.3-1,0.2-1.5L64.9,10.3z M61.4,10.4c0.2,0.7-0.3,1.3-0.9,1.5c-0.7,0.2-1.3-0.3-1.5-0.9
		c-0.2-0.7,0.3-1.3,0.9-1.5C60.5,9.3,61.2,9.7,61.4,10.4z"/>
</g>
</svg>
