<?xml version="1.0" encoding="utf-8"?>
<!-- Generator: Adobe Illustrator 18.1.1, SVG Export Plug-In . SVG Version: 6.00 Build 0)  -->
<svg version="1.1" id="Layer_1" xmlns="http://www.w3.org/2000/svg" xmlns:xlink="http://www.w3.org/1999/xlink" x="0px" y="0px"
	 viewBox="0 0 188 25.6" enable-background="new 0 0 188 25.6" xml:space="preserve">
<rect x="-188" y="0" opacity="0.7" fill="#283D3D" width="188" height="25.6"/>
<rect x="-188" y="0" opacity="0.7" fill="#283D3D" width="188" height="25.6"/>
<rect x="0" y="0" opacity="0.7" fill="#283D3D" width="188" height="25.6"/>
<rect x="0" y="0" opacity="0.7" fill="#283D3D" width="188" height="25.6"/>
<rect x="188" y="0" opacity="0.7" fill="#283D3D" width="188" height="25.6"/>
<rect x="188" y="0" opacity="0.7" fill="#283D3D" width="188" height="25.6"/>
<g>
	<path fill="#FFFFFF" d="M89.3,17.1V9.6h1.3v6.3h3.4v1.2H89.3z"/>
	<path fill="#FFFFFF" d="M102.5,16.1c-0.8,0.7-1.7,1.1-2.8,1.1s-2-0.4-2.8-1.1c-0.8-0.7-1.1-1.7-1.1-2.8s0.4-2,1.1-2.8
		s1.7-1.1,2.8-1.1s2,0.4,2.8,1.1s1.1,1.7,1.1,2.8S103.2,15.3,102.5,16.1z M101.5,11.4c-0.5-0.5-1.1-0.8-1.9-0.8s-1.4,0.3-1.9,0.8
		c-0.5,0.5-0.8,1.2-0.8,1.9s0.3,1.4,0.8,1.9c0.5,0.5,1.1,0.8,1.9,0.8s1.4-0.3,1.9-0.8c0.5-0.5,0.8-1.2,0.8-1.9S102,11.9,101.5,11.4z
		"/>
	<path fill="#FFFFFF" d="M107.1,15.4l-0.7,1.7H105l3.3-7.5h1.3l3.3,7.5h-1.3l-0.8-1.7H107.1z M110.4,14.2l-1.4-3.1l-1.4,3.1H110.4z"
		/>
	<path fill="#FFFFFF" d="M120.7,10.6c0.7,0.7,1.1,1.6,1.1,2.7c0,1.2-0.3,2.1-1,2.8c-0.7,0.7-1.8,1-3.2,1h-2.5V9.6h2.6
		C119,9.6,120,9.9,120.7,10.6z M120.6,13.3c0-1.7-1-2.6-2.9-2.6h-1.3v5.1h1.4c0.9,0,1.6-0.2,2.1-0.6S120.6,14.2,120.6,13.3z"/>
</g>
<g>
	<g>
		<g>
			<path fill="#FFFFFF" d="M76.1,20h-8.6c-0.4,0-0.7-0.3-0.7-0.7v-2.6c0-0.4,0.3-0.7,0.7-0.7s0.7,0.3,0.7,0.7v1.9h7.3v-1.9
				c0-0.4,0.3-0.7,0.7-0.7s0.7,0.3,0.7,0.7v2.6C76.8,19.7,76.5,20,76.1,20z"/>
		</g>
	</g>
	<g>
		<g>
			<g>
				<path fill="#FFFFFF" d="M71.8,14.3c-0.1,0-0.2,0-0.3-0.1c-0.3-0.1-0.4-0.4-0.4-0.6V6.9c0-0.4,0.3-0.7,0.7-0.7
					c0.4,0,0.7,0.3,0.7,0.7v5.1l1.3-1.3c0.3-0.3,0.7-0.3,1,0c0.3,0.3,0.3,0.7,0,1l-2.5,2.5C72.2,14.2,72,14.3,71.8,14.3z"/>
			</g>
			<g>
				<path fill="#FFFFFF" d="M71.8,14.3c-0.2,0-0.4-0.1-0.5-0.2l-2.4-2.4c-0.3-0.3-0.3-0.7,0-1c0.3-0.3,0.7-0.3,1,0l2.4,2.4
					c0.3,0.3,0.3,0.7,0,1C72.2,14.2,72,14.3,71.8,14.3z"/>
			</g>
		</g>
	</g>
	<g>
		<g>
			<rect x="69.3" y="16.5" fill="#FFFFFF" width="5" height="1"/>
		</g>
	</g>
	<g>
		<g>
			<rect x="69.3" y="15.4" fill="#FFFFFF" width="5" height="0.3"/>
		</g>
	</g>
</g>
</svg>
