<?xml version="1.0" encoding="utf-8"?>
<!-- Generator: Adobe Illustrator 18.1.1, SVG Export Plug-In . SVG Version: 6.00 Build 0)  -->
<svg version="1.1" id="Layer_1" xmlns="http://www.w3.org/2000/svg" xmlns:xlink="http://www.w3.org/1999/xlink" x="0px" y="0px"
	 viewBox="0 0 188 25.6" enable-background="new 0 0 188 25.6" xml:space="preserve">
<rect x="0.1" y="0" fill="#FFD110" width="187.9" height="25.6"/>
<g>
	<g>
		<g>
			<g>
				<path fill="#1C1C1C" d="M76,11.2c-1.4,0-2.5,1.1-2.5,2.5s1.1,2.5,2.5,2.5c1.4,0,2.5-1.1,2.5-2.5S77.4,11.2,76,11.2z M76,15.7
					c-1.1,0-1.9-0.9-1.9-1.9s0.9-1.9,1.9-1.9c1.1,0,1.9,0.9,1.9,1.9S77,15.7,76,15.7z"/>
			</g>
		</g>
		<g>
			<g>
				<path fill="#1C1C1C" d="M76,20.7c-3.8,0-6.9-3.1-6.9-6.9s3.1-6.9,6.9-6.9s6.9,3.1,6.9,6.9S79.8,20.7,76,20.7z M76,7.6
					c-3.4,0-6.1,2.7-6.1,6.1s2.7,6.1,6.1,6.1s6.1-2.7,6.1-6.1S79.4,7.6,76,7.6z"/>
				<path fill="#1C1C1C" d="M76,7c3.7,0,6.8,3,6.8,6.8c0,3.7-3,6.8-6.8,6.8c-3.7,0-6.8-3-6.8-6.8C69.2,10,72.2,7,76,7 M76,20.1
					c3.5,0,6.3-2.8,6.3-6.3c0-3.5-2.8-6.3-6.3-6.3s-6.3,2.8-6.3,6.3C69.7,17.2,72.5,20.1,76,20.1 M76,6.7c-3.9,0-7.1,3.2-7.1,7.1
					c0,3.9,3.2,7.1,7.1,7.1s7.1-3.2,7.1-7.1C83.1,9.8,79.9,6.7,76,6.7L76,6.7z M76,19.7c-3.3,0-6-2.7-6-6s2.7-6,6-6s6,2.7,6,6
					S79.3,19.7,76,19.7L76,19.7z"/>
			</g>
		</g>
		<g>
			<path fill="#1C1C1C" stroke="#1C1C1C" stroke-width="0.2066" stroke-miterlimit="10" d="M76,14.9c-0.6,0-1.2-0.5-1.2-1.2
				c0-0.6,0.5-1.2,1.2-1.2s1.2,0.5,1.2,1.2C77.2,14.4,76.6,14.9,76,14.9z M76,12.7c-0.6,0-1.1,0.5-1.1,1.1c0,0.6,0.5,1.1,1.1,1.1
				c0.6,0,1.1-0.5,1.1-1.1C77,13.2,76.6,12.7,76,12.7z"/>
		</g>
	</g>
	<path fill="none" stroke="#1C1C1C" stroke-width="0.529" stroke-miterlimit="10" d="M71.9,11c0.7-1.1,1.8-1.8,3.1-2.1"/>
	<path fill="none" stroke="#1C1C1C" stroke-width="0.529" stroke-miterlimit="10" d="M71.2,12.5c0.1-0.4,0.2-0.7,0.4-1"/>
	<path fill="none" stroke="#1C1C1C" stroke-width="0.529" stroke-miterlimit="10" d="M71.1,13.4c0-0.1,0-0.2,0-0.3"/>
</g>
<g>
	<path fill="#1C1C1C" d="M62.5,9.7c-0.4,0-0.7,0.2-0.7,0.6v2.3c0,0.5-0.2,0.8-0.7,0.9c0.5,0.1,0.7,0.4,0.7,0.9v2.5
		c0,0.2,0.1,0.3,0.2,0.4c0.1,0.1,0.3,0.1,0.6,0.1v1h-0.4c-1,0-1.4-0.5-1.4-1.4v-2.3c0-0.2,0-0.4-0.1-0.5c-0.1-0.1-0.2-0.1-0.4-0.1
		H60v-1h0.3c0.2,0,0.3,0,0.4-0.1c0.1-0.1,0.1-0.3,0.1-0.5v-2.2c0-0.9,0.5-1.4,1.4-1.4h0.4L62.5,9.7C62.6,9.7,62.6,9.7,62.5,9.7z"/>
	<path fill="#1C1C1C" d="M92.6,10.3c-0.4,0-0.7,0.1-0.9,0.2c-0.2,0.1-0.4,0.4-0.4,0.7c0,0.3,0.1,0.5,0.4,0.7
		c0.2,0.2,0.7,0.3,1.5,0.5c0.8,0.2,1.3,0.4,1.7,0.8c0.4,0.3,0.6,0.8,0.6,1.5s-0.2,1.2-0.7,1.6c-0.5,0.4-1.1,0.6-1.9,0.6
		c-1.2,0-2.2-0.4-3.1-1.2l0.8-1c0.8,0.7,1.5,1,2.3,1c0.4,0,0.7-0.1,1-0.3c0.2-0.2,0.4-0.4,0.4-0.7s-0.1-0.5-0.3-0.7
		c-0.2-0.2-0.6-0.3-1.2-0.4c-0.5-0.1-1-0.3-1.2-0.4c-0.3-0.1-0.5-0.3-0.8-0.4c-0.4-0.3-0.7-0.8-0.7-1.5c0-0.7,0.3-1.2,0.8-1.6
		c0.5-0.4,1.1-0.6,1.9-0.6c0.5,0,0.9,0.1,1.4,0.2c0.5,0.2,0.9,0.4,1.2,0.7l-0.7,1c-0.2-0.2-0.5-0.4-0.9-0.5
		C93.4,10.4,93,10.3,92.6,10.3z"/>
	<path fill="#1C1C1C" d="M99.1,15.1l-0.7,1.7h-1.3l3.3-7.5h1.3l3.3,7.5h-1.3l-0.7-1.7H99.1z M102.4,14l-1.4-3.1L99.7,14H102.4z"/>
	<path fill="#1C1C1C" d="M110,16.8h-1.4l-3-7.5h1.4l2.3,5.6l2.3-5.6h1.4L110,16.8z"/>
	<path fill="#1C1C1C" d="M120.4,9.4v1.2h-4v2h3.6v1.1h-3.6v2h4.1v1.2h-5.4V9.4H120.4z"/>
	<path fill="#1C1C1C" d="M128.1,18.4h-0.4v-1c0.3,0,0.5,0,0.6-0.1c0.1-0.1,0.2-0.2,0.2-0.4v-2.5c0-0.5,0.2-0.8,0.7-0.9
		c-0.5-0.1-0.7-0.4-0.7-0.9v-2.3c0-0.2-0.1-0.4-0.2-0.5c-0.1-0.1-0.2-0.1-0.3-0.1h0l-0.2,0v-1h0.4c1,0,1.4,0.5,1.4,1.4v2.2
		c0,0.2,0,0.4,0.1,0.5c0.1,0.1,0.2,0.1,0.4,0.1h0.3v1H130c-0.2,0-0.3,0-0.4,0.1c-0.1,0.1-0.1,0.3-0.1,0.5V17
		C129.5,17.9,129,18.4,128.1,18.4z"/>
</g>
</svg>
