<?xml version="1.0" encoding="utf-8"?>
<!-- Generator: Adobe Illustrator 18.1.1, SVG Export Plug-In . SVG Version: 6.00 Build 0)  -->
<svg version="1.1" id="Layer_1" xmlns="http://www.w3.org/2000/svg" xmlns:xlink="http://www.w3.org/1999/xlink" x="0px" y="0px"
	 viewBox="0 0 188 25.6" enable-background="new 0 0 188 25.6" xml:space="preserve">
<rect x="-375.9" y="0.1" opacity="0.7" fill="#283D3D" width="752.4" height="25.6"/>
<rect x="-375.9" y="0.1" opacity="0.7" fill="#283D3D" width="752.4" height="25.6"/>
<g>
	<path fill="#FFFFFF" d="M87.5,16c0.4,0,0.8-0.1,1.1-0.2s0.6-0.4,1-0.7l0.8,0.8c-0.8,0.9-1.8,1.3-2.9,1.3s-2.1-0.4-2.8-1.1
		s-1.1-1.6-1.1-2.8c0-1.1,0.4-2,1.1-2.8c0.8-0.7,1.7-1.1,2.9-1.1c1.2,0,2.1,0.4,2.9,1.3l-0.8,0.9c-0.4-0.3-0.7-0.6-1-0.7
		c-0.3-0.1-0.7-0.2-1.1-0.2c-0.8,0-1.4,0.2-1.9,0.7c-0.5,0.5-0.8,1.1-0.8,1.9s0.3,1.4,0.8,1.9C86.2,15.8,86.8,16,87.5,16z"/>
	<path fill="#FFFFFF" d="M99.1,16.1c-0.8,0.7-1.7,1.1-2.8,1.1c-1.1,0-2-0.4-2.8-1.1c-0.8-0.7-1.1-1.7-1.1-2.8s0.4-2,1.1-2.8
		s1.7-1.1,2.8-1.1c1.1,0,2,0.4,2.8,1.1s1.1,1.7,1.1,2.8S99.9,15.4,99.1,16.1z M98.2,11.4c-0.5-0.5-1.1-0.8-1.9-0.8
		c-0.7,0-1.4,0.3-1.9,0.8c-0.5,0.5-0.8,1.2-0.8,1.9s0.3,1.4,0.8,1.9c0.5,0.5,1.1,0.8,1.9,0.8c0.7,0,1.4-0.3,1.9-0.8
		c0.5-0.5,0.8-1.2,0.8-1.9S98.7,12,98.2,11.4z"/>
	<path fill="#FFFFFF" d="M108.5,9.7h1.3v7.5h-1.4l-4.2-5.5v5.5h-1.3V9.7h1.3l4.3,5.6V9.7z"/>
	<path fill="#FFFFFF" d="M114.2,10.9v2.1h3.3v1.2h-3.3v3.1h-1.3V9.7h5l0,1.2H114.2z"/>
	<path fill="#FFFFFF" d="M120.5,9.7h1.3v7.5h-1.3V9.7z"/>
	<path fill="#FFFFFF" d="M130.1,13.5h1.3v2.6c-0.7,0.8-1.7,1.2-3,1.2c-1.1,0-2-0.4-2.8-1.1s-1.1-1.6-1.1-2.8c0-1.1,0.4-2,1.1-2.8
		c0.8-0.7,1.7-1.1,2.8-1.1s2,0.3,2.7,0.9l-0.7,1c-0.3-0.3-0.6-0.4-0.9-0.5c-0.3-0.1-0.6-0.1-1-0.1c-0.8,0-1.4,0.2-1.9,0.7
		c-0.5,0.5-0.8,1.1-0.8,1.9s0.3,1.4,0.8,1.9s1.1,0.7,1.8,0.7c0.7,0,1.3-0.2,1.8-0.5V13.5z"/>
</g>
<g>
	<path fill="#FFFFFF" d="M72.6,17.9l0.3-1.4l-1-0.2c0-0.5-0.1-1-0.3-1.5l0.8-0.5L71.8,13l-0.8,0.5c-0.3-0.4-0.8-0.7-1.2-0.9l0.2-1
		l-1.4-0.3l-0.2,1c-0.5,0-1,0.1-1.5,0.2l-0.5-0.8L65,12.5l0.5,0.8c-0.4,0.3-0.7,0.8-0.9,1.2l-0.9-0.2l-0.3,1.4l0.9,0.2
		c0,0.5,0.1,1,0.3,1.5L63.8,18l0.8,1.2l0.8-0.5c0.3,0.4,0.8,0.7,1.3,0.9l-0.2,0.9l1.4,0.3L68,20c0.5,0,1-0.1,1.5-0.3l0.5,0.8
		l1.2-0.8l-0.5-0.8c0.4-0.3,0.7-0.8,0.9-1.2L72.6,17.9z M69.4,16.4c-0.2,0.7-0.8,1.1-1.5,0.9c-0.7-0.2-1.1-0.8-0.9-1.5
		s0.8-1.1,1.5-0.9C69.1,15.1,69.5,15.7,69.4,16.4z"/>
	<path fill="#FFFFFF" d="M65.1,10.3l-0.3-1.4l-1,0.2c-0.2-0.5-0.5-0.9-0.9-1.2l0.5-0.8l-1.2-0.8l-0.5,0.8c-0.5-0.2-1-0.3-1.5-0.3
		l-0.2-1l-1.4,0.3l0.2,1c-0.5,0.2-0.9,0.5-1.2,0.9l-0.8-0.5l-0.8,1.2l0.8,0.5c-0.2,0.5-0.3,1-0.3,1.5L55.5,11l0.3,1.4l0.9-0.2
		c0.2,0.5,0.5,0.9,0.9,1.3l-0.5,0.8l1.3,0.8l0.5-0.8c0.5,0.2,1,0.3,1.5,0.3l0.2,0.9l1.4-0.3l-0.2-0.9c0.5-0.2,0.9-0.5,1.2-0.9
		l0.8,0.5l0.8-1.2l-0.8-0.5c0.2-0.5,0.3-1,0.2-1.5L65.1,10.3z M61.5,10.4c0.2,0.7-0.3,1.3-0.9,1.5c-0.7,0.2-1.3-0.3-1.5-0.9
		c-0.2-0.7,0.3-1.3,0.9-1.5C60.7,9.3,61.3,9.8,61.5,10.4z"/>
</g>
</svg>
