<?xml version="1.0" encoding="utf-8"?>
<!-- Generator: Adobe Illustrator 18.1.1, SVG Export Plug-In . SVG Version: 6.00 Build 0)  -->
<svg version="1.1" id="Layer_1" xmlns="http://www.w3.org/2000/svg" xmlns:xlink="http://www.w3.org/1999/xlink" x="0px" y="0px"
	 width="111.5px" height="32px" viewBox="0 0 111.5 32" enable-background="new 0 0 111.5 32" xml:space="preserve">
<g>
	<path fill="#FFD110" d="M-223,20.3c0,6.5,5.3,11.8,11.9,11.8H223V19.7C223,8.8,214.1,0,203.2,0H-223V20.3z"/>
</g>
<g>
	<defs>
		<path id="SVGID_6_" d="M-223,20.3c0,6.5,5.3,11.8,13.5,11.8h430.3L219,19.7C219,8.8,210.2,0,201.1,0h-422.3L-223,20.3z"/>
	</defs>
	<clipPath id="SVGID_2_">
		<use xlink:href="#SVGID_6_"  overflow="visible"/>
	</clipPath>
	<g clip-path="url(#SVGID_2_)">
		<g opacity="0.7">
			<path fill="#283D3D" d="M0.2,43.7h-112.6v-53.9H0.2V43.7z M-111.4,42.7H-0.8V-9.1h-110.6V42.7z"/>
		</g>
		<g opacity="0.7">
			<path fill="#283D3D" d="M111.5,43.7H-1v-53.9h112.5V43.7z M0,42.7h110.5V-9.1H0V42.7z"/>
		</g>
		<g opacity="0.7">
			<path fill="#283D3D" d="M224.8,43.7H110.5v-53.9h114.4V43.7z M111.5,42.7h112.4V-9.1H111.5V42.7z"/>
		</g>
	</g>
</g>
<g>
	<path fill="#283D3D" d="M28.4,18.5l1-1.1c0.9,0.7,1.7,1.2,2.8,1.2c1,0,1.6-0.5,1.6-1.1v0c0-0.6-0.4-1-2-1.4c-1.9-0.5-3-1-3-2.7v0
		c0-1.5,1.3-2.6,3.1-2.6c1.3,0,2.4,0.4,3.3,1.1L34.3,13c-0.8-0.6-1.6-0.9-2.4-0.9c-0.9,0-1.5,0.5-1.5,1.1v0c0,0.7,0.4,1,2.2,1.4
		c1.9,0.5,2.9,1.1,2.9,2.6v0c0,1.7-1.3,2.7-3.2,2.7C30.8,19.9,29.5,19.4,28.4,18.5z"/>
	<path fill="#283D3D" d="M38.2,15.3L38.2,15.3c0-2.6,1.9-4.7,4.7-4.7c1.7,0,2.7,0.6,3.5,1.4l-1,1.2c-0.7-0.7-1.5-1.1-2.5-1.1
		c-1.7,0-3,1.4-3,3.2v0c0,1.8,1.3,3.2,3,3.2c1.1,0,1.8-0.4,2.6-1.2l1,1c-0.9,1-2,1.6-3.7,1.6C40.1,19.9,38.2,17.9,38.2,15.3z"/>
	<path fill="#283D3D" d="M49.4,10.8h6.7v1.4h-5.1v2.3h4.5v1.4h-4.5v2.4h5.2v1.4h-6.8V10.8z"/>
	<path fill="#283D3D" d="M59.3,10.8h1.5l4.8,6.2v-6.2h1.6v9h-1.3l-5-6.4v6.4h-1.6V10.8z"/>
	<path fill="#283D3D" d="M70.8,10.8h6.7v1.4h-5.1v2.3h4.5v1.4h-4.5v2.4h5.2v1.4h-6.8V10.8z"/>
</g>
</svg>
