<?xml version="1.0" encoding="utf-8"?>
<!-- Generator: Adobe Illustrator 18.1.1, SVG Export Plug-In . SVG Version: 6.00 Build 0)  -->
<svg version="1.1" id="Layer_1" xmlns="http://www.w3.org/2000/svg" xmlns:xlink="http://www.w3.org/1999/xlink" x="0px" y="0px"
	 width="111.5px" height="32px" viewBox="0 0 111.5 32" enable-background="new 0 0 111.5 32" xml:space="preserve">
<g>
	<path fill="#FFD110" d="M0,20.3C0,26.8,5.3,32,11.9,32H446V19.7C446,8.8,437.1,0,426.2,0H0V20.3z"/>
</g>
<g>
	<defs>
		<path id="SVGID_6_" d="M0,20.3C0,26.8,5.3,32,13.5,32h430.3L442,19.7C442,8.8,433.2,0,424.1,0H1.8L0,20.3z"/>
	</defs>
	<clipPath id="SVGID_2_">
		<use xlink:href="#SVGID_6_"  overflow="visible"/>
	</clipPath>
	<g clip-path="url(#SVGID_2_)">
		<g opacity="0.7">
			<path fill="#283D3D" d="M111.6,43.7H-4.3v-53.9h115.8V43.7z M-3.2,42.7h113.8V-9.1H-3.2V42.7z"/>
		</g>
		<g opacity="0.7">
			<path fill="#283D3D" d="M223.2,43.7H110.6v-53.9h112.6V43.7z M111.6,42.7h110.6V-9.1H111.6V42.7z"/>
		</g>
	</g>
</g>
<g>
	<path fill="#283D3D" d="M42.9,18.7l1-1.1c0.9,0.7,1.7,1.2,2.8,1.2c1,0,1.6-0.5,1.6-1.1v0c0-0.6-0.4-1-2-1.4c-1.9-0.5-3-1-3-2.7v0
		c0-1.5,1.3-2.6,3.1-2.6c1.3,0,2.4,0.4,3.3,1.1l-0.9,1.2c-0.8-0.6-1.6-0.9-2.4-0.9c-0.9,0-1.5,0.5-1.5,1.1v0c0,0.7,0.4,1,2.2,1.4
		c1.9,0.5,2.9,1.1,2.9,2.6v0c0,1.7-1.3,2.7-3.2,2.7C45.3,20.2,44,19.7,42.9,18.7z"/>
	<path fill="#283D3D" d="M53.1,11h1.6v4.5l4.3-4.5h2l-3.8,3.9l3.9,5.1h-1.9L56,16l-1.4,1.4V20h-1.6V11z"/>
	<path fill="#283D3D" d="M63.8,11h1.6v9h-1.6V11z"/>
	<path fill="#283D3D" d="M69.1,11h3.6c2.1,0,3.4,1.2,3.4,3v0c0,2-1.6,3.1-3.6,3.1h-1.8V20h-1.6V11z M72.5,15.7
		c1.2,0,1.9-0.7,1.9-1.6v0c0-1.1-0.8-1.6-1.9-1.6h-1.8v3.2H72.5z"/>
</g>
</svg>
