<?xml version="1.0" encoding="utf-8"?>
<!-- Generator: Adobe Illustrator 18.1.1, SVG Export Plug-In . SVG Version: 6.00 Build 0)  -->
<svg version="1.1" id="Layer_1" xmlns="http://www.w3.org/2000/svg" xmlns:xlink="http://www.w3.org/1999/xlink" x="0px" y="0px"
	 width="111.5px" height="32px" viewBox="0 0 111.5 32" enable-background="new 0 0 111.5 32" xml:space="preserve">
<g>
	<path fill="#283D3D" d="M-223.1,20.3c0,6.5,5.3,11.8,11.9,11.8h434.5V19.7c0-10.9-8.9-19.7-19.9-19.7h-426.5V20.3z"/>
</g>
<g>
	<defs>
		<path id="SVGID_8_" d="M-223.1,20.3c0,6.5,5.3,11.8,13.5,11.8h430.3l-1.8-12.3c0-10.9-8.8-19.7-17.9-19.7h-422.3L-223.1,20.3z"/>
	</defs>
	<use xlink:href="#SVGID_8_"  overflow="visible" fill="#283D3D"/>
	<clipPath id="SVGID_2_">
		<use xlink:href="#SVGID_8_"  overflow="visible"/>
	</clipPath>
	<g clip-path="url(#SVGID_2_)">
		<g opacity="0.7">
			<path fill="#283D3D" d="M0.1,43.8h-112.6v-53.9H0.1V43.8z M-111.5,42.8H-0.9V-9.1h-110.6V42.8z"/>
		</g>
		<g opacity="0.7">
			<path fill="#283D3D" d="M111.4,43.8H-1.1v-53.9h112.5V43.8z M-0.1,42.8h110.5V-9.1H-0.1V42.8z"/>
		</g>
		<g opacity="0.7">
			<path fill="#283D3D" d="M224.7,43.8H110.3v-53.9h114.4V43.8z M111.4,42.8h112.4V-9.1H111.4V42.8z"/>
		</g>
	</g>
</g>
<g>
	<path fill="#FFD110" d="M28.3,18.7l1-1.1c0.9,0.7,1.7,1.2,2.8,1.2c1,0,1.6-0.5,1.6-1.1v0c0-0.6-0.4-1-2-1.4c-1.9-0.5-3-1-3-2.7v0
		c0-1.5,1.3-2.6,3.1-2.6c1.3,0,2.4,0.4,3.3,1.1l-0.9,1.2c-0.8-0.6-1.6-0.9-2.4-0.9c-0.9,0-1.5,0.5-1.5,1.1v0c0,0.7,0.4,1,2.2,1.4
		c1.9,0.5,2.9,1.1,2.9,2.6v0c0,1.7-1.3,2.7-3.2,2.7C30.7,20.2,29.4,19.7,28.3,18.7z"/>
	<path fill="#FFD110" d="M38.1,15.5L38.1,15.5c0-2.6,1.9-4.7,4.7-4.7c1.7,0,2.7,0.6,3.5,1.4l-1,1.2c-0.7-0.7-1.5-1.1-2.5-1.1
		c-1.7,0-3,1.4-3,3.2v0c0,1.8,1.3,3.2,3,3.2c1.1,0,1.8-0.4,2.6-1.2l1,1c-0.9,1-2,1.6-3.7,1.6C40,20.2,38.1,18.1,38.1,15.5z"/>
	<path fill="#FFD110" d="M49.3,11h6.7v1.4h-5.1v2.3h4.5v1.4h-4.5v2.4H56V20h-6.8V11z"/>
	<path fill="#FFD110" d="M59.2,11h1.5l4.8,6.2V11H67v9h-1.3l-5-6.4V20h-1.6V11z"/>
	<path fill="#FFD110" d="M70.6,11h6.7v1.4h-5.1v2.3h4.5v1.4h-4.5v2.4h5.2V20h-6.8V11z"/>
</g>
</svg>
