<?xml version="1.0" encoding="utf-8"?>
<!-- Generator: Adobe Illustrator 18.1.1, SVG Export Plug-In . SVG Version: 6.00 Build 0)  -->
<svg version="1.1" id="Layer_1" xmlns="http://www.w3.org/2000/svg" xmlns:xlink="http://www.w3.org/1999/xlink" x="0px" y="0px"
	 viewBox="0 0 111.5 32" enable-background="new 0 0 111.5 32" xml:space="preserve">
<g>
	<path fill="#283D3D" d="M-0.1,20.3c0,6.5,5.3,11.8,11.9,11.8h434.5V19.7c0-10.9-8.9-19.7-19.9-19.7H-0.1V20.3z"/>
</g>
<g>
	<defs>
		<path id="SVGID_8_" d="M-0.1,20.3c0,6.5,5.3,11.8,13.5,11.8h430.3l-1.8-12.3c0-10.9-8.8-19.7-17.9-19.7H1.7L-0.1,20.3z"/>
	</defs>
	<use xlink:href="#SVGID_8_"  overflow="visible" fill="#283D3D"/>
	<clipPath id="SVGID_2_">
		<use xlink:href="#SVGID_8_"  overflow="visible"/>
	</clipPath>
	<g clip-path="url(#SVGID_2_)">
		<g opacity="0.7">
			<path fill="#283D3D" d="M111.5,43.8H-4.3v-53.9h115.8V43.8z M-3.3,42.8h113.8V-9.1H-3.3V42.8z"/>
		</g>
		<g opacity="0.7">
			<path fill="#283D3D" d="M223.1,43.8H110.5v-53.9h112.6V43.8z M111.5,42.8h110.6V-9.1H111.5V42.8z"/>
		</g>
	</g>
</g>
<g>
	<path fill="#FFD110" d="M42.8,18.8l1-1.1c0.9,0.7,1.7,1.2,2.8,1.2c1,0,1.6-0.5,1.6-1.1v0c0-0.6-0.4-1-2-1.4c-1.9-0.5-3-1-3-2.7v0
		c0-1.5,1.3-2.6,3.1-2.6c1.3,0,2.4,0.4,3.3,1.1l-0.9,1.2c-0.8-0.6-1.6-0.9-2.4-0.9c-0.9,0-1.5,0.5-1.5,1.1v0c0,0.7,0.4,1,2.2,1.4
		c1.9,0.5,2.9,1.1,2.9,2.6v0c0,1.7-1.3,2.7-3.2,2.7C45.2,20.2,43.9,19.8,42.8,18.8z"/>
	<path fill="#FFD110" d="M53,11.1h1.6v4.5l4.3-4.5h2L57,15l3.9,5.1H59L56,16l-1.4,1.4v2.6H53V11.1z"/>
	<path fill="#FFD110" d="M63.7,11.1h1.6v9h-1.6V11.1z"/>
	<path fill="#FFD110" d="M69,11.1h3.6c2.1,0,3.4,1.2,3.4,3v0c0,2-1.6,3.1-3.6,3.1h-1.8v2.9H69V11.1z M72.4,15.8
		c1.2,0,1.9-0.7,1.9-1.6v0c0-1.1-0.8-1.6-1.9-1.6h-1.8v3.2H72.4z"/>
</g>
</svg>
