<?xml version="1.0" encoding="utf-8"?>
<!-- Generator: Adobe Illustrator 18.1.1, SVG Export Plug-In . SVG Version: 6.00 Build 0)  -->
<svg version="1.1" id="Layer_1" xmlns="http://www.w3.org/2000/svg" xmlns:xlink="http://www.w3.org/1999/xlink" x="0px" y="0px"
	 viewBox="0 0 111.5 32" enable-background="new 0 0 111.5 32" xml:space="preserve">
<g>
	<path fill="#FFD110" d="M-111.5,20.3c0,6.5,5.3,11.8,11.9,11.8h434.2V19.7c0-10.9-8.9-19.7-19.8-19.7h-426.2V20.3z"/>
</g>
<g>
	<defs>
		<path id="SVGID_6_" d="M-111.5,20.3c0,6.5,5.3,11.8,13.5,11.8h430.3l-1.8-12.3c0-10.9-8.8-19.7-17.9-19.7h-422.3L-111.5,20.3z"/>
	</defs>
	<clipPath id="SVGID_2_">
		<use xlink:href="#SVGID_6_"  overflow="visible"/>
	</clipPath>
	<g clip-path="url(#SVGID_2_)">
		<g opacity="0.7">
			<path fill="#283D3D" d="M0.1,43.7h-115.8v-53.9H0.1V43.7z M-114.7,42.7H-0.9V-9.1h-113.8V42.7z"/>
		</g>
		<g opacity="0.7">
			<path fill="#283D3D" d="M111.7,43.7H-0.9v-53.9h112.6V43.7z M0.1,42.7h110.6V-9.1H0.1V42.7z"/>
		</g>
		<g opacity="0.7">
			<path fill="#283D3D" d="M223,43.7H110.5v-53.9H223V43.7z M111.5,42.7H222V-9.1H111.5V42.7z"/>
		</g>
	</g>
</g>
<g>
	<path fill="#283D3D" d="M36.7,10.7h1.5l4,9.1h-1.7l-0.9-2.2h-4.3l-0.9,2.2h-1.6L36.7,10.7z M39,16.2l-1.6-3.6l-1.5,3.6H39z"/>
	<path fill="#283D3D" d="M44.5,16v-5.2h1.6v5.1c0,1.7,0.9,2.6,2.3,2.6c1.4,0,2.3-0.8,2.3-2.5v-5.2h1.6v5.1c0,2.7-1.5,4-3.9,4
		C46,19.9,44.5,18.6,44.5,16z"/>
	<path fill="#283D3D" d="M57.9,12.2h-2.9v-1.5h7.3v1.5h-2.9v7.6h-1.6V12.2z"/>
	<path fill="#283D3D" d="M64.5,15.3L64.5,15.3c0-2.6,2-4.7,4.7-4.7c2.8,0,4.7,2.1,4.7,4.6v0c0,2.5-2,4.7-4.7,4.7
		S64.5,17.8,64.5,15.3z M72.2,15.3L72.2,15.3c0-1.8-1.3-3.2-3.1-3.2s-3,1.4-3,3.2v0c0,1.8,1.3,3.2,3.1,3.2
		C71,18.5,72.2,17.1,72.2,15.3z"/>
</g>
</svg>
