<?xml version="1.0" encoding="utf-8"?>
<!-- Generator: Adobe Illustrator 18.1.1, SVG Export Plug-In . SVG Version: 6.00 Build 0)  -->
<svg version="1.1" id="Layer_1" xmlns="http://www.w3.org/2000/svg" xmlns:xlink="http://www.w3.org/1999/xlink" x="0px" y="0px"
	 viewBox="0 0 111.5 32" enable-background="new 0 0 111.5 32" xml:space="preserve">
<g>
	<path fill="#FFD110" d="M-334.5,20.3c0,6.5,5.3,11.8,11.9,11.8h434.2V19.7C111.5,8.8,102.6,0,91.7,0h-426.2V20.3z"/>
</g>
<g>
	<defs>
		<path id="SVGID_6_" d="M-334.5,20.3c0,6.5,5.3,11.8,13.5,11.8h430.3l-1.8-12.3C107.5,8.8,98.7,0,89.6,0h-422.3L-334.5,20.3z"/>
	</defs>
	<clipPath id="SVGID_2_">
		<use xlink:href="#SVGID_6_"  overflow="visible"/>
	</clipPath>
	<g clip-path="url(#SVGID_2_)">
		<g opacity="0.7">
			<path fill="#283D3D" d="M113.3,43.7H-1v-53.9h114.4V43.7z M0,42.7h112.4V-9.1H0V42.7z"/>
		</g>
	</g>
</g>
<g>
	<path fill="#283D3D" d="M36.5,10.8h1.6v7.6h4.7v1.4h-6.3V10.8z"/>
	<path fill="#283D3D" d="M44.9,15.3L44.9,15.3c0-2.6,2-4.7,4.7-4.7c2.8,0,4.7,2.1,4.7,4.6v0c0,2.5-2,4.7-4.7,4.7
		C46.8,19.9,44.9,17.8,44.9,15.3z M52.6,15.3L52.6,15.3c0-1.8-1.3-3.2-3.1-3.2c-1.8,0-3,1.4-3,3.2v0c0,1.8,1.3,3.2,3.1,3.2
		S52.6,17.1,52.6,15.3z"/>
	<path fill="#283D3D" d="M57.1,15.3L57.1,15.3c0-2.6,1.9-4.7,4.7-4.7c1.6,0,2.5,0.4,3.5,1.2l-1,1.2c-0.7-0.6-1.4-1-2.5-1
		c-1.7,0-2.9,1.5-2.9,3.2v0c0,1.9,1.2,3.2,3.1,3.2c0.9,0,1.6-0.3,2.2-0.7v-1.7h-2.3v-1.4h3.8v3.8c-0.9,0.8-2.2,1.4-3.8,1.4
		C59,19.9,57.1,17.9,57.1,15.3z"/>
</g>
</svg>
