<?xml version="1.0" encoding="utf-8"?>
<!-- Generator: Adobe Illustrator 18.1.1, SVG Export Plug-In . SVG Version: 6.00 Build 0)  -->
<svg version="1.1" id="Layer_1" xmlns="http://www.w3.org/2000/svg" xmlns:xlink="http://www.w3.org/1999/xlink" x="0px" y="0px"
	 viewBox="0 0 111.5 32" enable-background="new 0 0 111.5 32" xml:space="preserve">
<g>
	<path fill="#283D3D" d="M-334.6,20.3c0,6.5,5.3,11.8,11.9,11.8h434.5V19.7c0-10.9-8.9-19.7-19.9-19.7h-426.5V20.3z"/>
</g>
<g>
	<defs>
		<path id="SVGID_8_" d="M-334.6,20.3c0,6.5,5.3,11.8,13.5,11.8h430.3l-1.8-12.3c0-10.9-8.8-19.7-17.9-19.7h-422.3L-334.6,20.3z"/>
	</defs>
	<use xlink:href="#SVGID_8_"  overflow="visible" fill="#283D3D"/>
	<clipPath id="SVGID_2_">
		<use xlink:href="#SVGID_8_"  overflow="visible"/>
	</clipPath>
	<g clip-path="url(#SVGID_2_)">
		<g opacity="0.7">
			<path fill="#283D3D" d="M113.2,43.8H-1.2v-53.9h114.4V43.8z M-0.1,42.8h112.4V-9.1H-0.1V42.8z"/>
		</g>
	</g>
</g>
<g>
	<path fill="#FFD110" d="M36.4,11H38v7.6h4.7V20h-6.3V11z"/>
	<path fill="#FFD110" d="M44.8,15.5L44.8,15.5c0-2.6,2-4.7,4.7-4.7c2.8,0,4.7,2.1,4.7,4.6v0c0,2.5-2,4.7-4.7,4.7
		C46.7,20.2,44.8,18.1,44.8,15.5z M52.5,15.5L52.5,15.5c0-1.8-1.3-3.2-3.1-3.2c-1.8,0-3,1.4-3,3.2v0c0,1.8,1.3,3.2,3.1,3.2
		S52.5,17.3,52.5,15.5z"/>
	<path fill="#FFD110" d="M57,15.5L57,15.5c0-2.6,1.9-4.7,4.7-4.7c1.6,0,2.5,0.4,3.5,1.2l-1,1.2c-0.7-0.6-1.4-1-2.5-1
		c-1.7,0-2.9,1.5-2.9,3.2v0c0,1.9,1.2,3.2,3.1,3.2c0.9,0,1.6-0.3,2.2-0.7v-1.7h-2.3V15h3.8v3.8c-0.9,0.8-2.2,1.4-3.8,1.4
		C58.9,20.2,57,18.2,57,15.5z"/>
</g>
</svg>
