<?xml version="1.0" encoding="utf-8"?>
<!-- Generator: Adobe Illustrator 18.1.1, SVG Export Plug-In . SVG Version: 6.00 Build 0)  -->
<svg version="1.1" id="Layer_1" xmlns="http://www.w3.org/2000/svg" xmlns:xlink="http://www.w3.org/1999/xlink" x="0px" y="0px"
	 width="112.7px" height="51.3px" viewBox="0 0 112.7 51.3" enable-background="new 0 0 112.7 51.3" xml:space="preserve">
<g>
	<path fill="#FFD400" d="M48.4,22.6h1.3l4.1,5.3v-5.3h1.3v7.7H54l-4.2-5.5v5.5h-1.3V22.6z"/>
	<path fill="#FFD400" d="M58.2,22.6h5.7v1.2h-4.3v2h3.9V27h-3.9V29H64v1.2h-5.7V22.6z"/>
	<path fill="#FFD400" d="M73.2,22.6l-2.7,3.8l2.8,3.9h-1.6l-2-2.9l-2,2.9h-1.5l2.8-3.9l-2.7-3.8h1.6l1.9,2.8l1.9-2.8H73.2z"/>
	<path fill="#FFD400" d="M77.6,23.8h-2.4v-1.3h6.2v1.3H79v6.4h-1.4V23.8z"/>
</g>
<g>
	<g>
		<path fill="#FFCE00" d="M27.2,24.3c-1.9,2.5-1.4,6.1,1.2,8s6.1,1.4,8-1.2c1.9-2.5,1.4-6.1-1.2-8C32.6,21.2,29.1,21.8,27.2,24.3z
			 M35.4,30.4c-1.5,2-4.3,2.4-6.4,0.9S26.8,27,28.3,25c0.7-0.9,3-1.5,3-1.8c0,0,0,0,0,0c-2,1.6-1.1,3.9,0.5,5.1
			c1.4,1.1,3.3,0.9,4.5-0.3C36.3,28.9,35.9,29.7,35.4,30.4z"/>
		<path fill="#FFCE00" d="M35.8,22.3c1.3,1,2.1,2.3,2.5,3.7c0.3-0.5,0.5-1.2,0.5-1.9c0-2-1.6-3.6-3.6-3.6c-0.7,0-1.4,0.2-2,0.6
			C34.2,21.3,35.1,21.7,35.8,22.3z"/>
	</g>
</g>
<path fill="none" stroke="#FFD400" stroke-width="2" stroke-miterlimit="10" d="M101.9,26.2l-7.4-4.1C92.6,16.2,87,12,80.5,12H28.7
	c-8,0-14.5,6.2-14.5,14.3v-0.1c0,8,6.5,14.9,14.5,14.9h51.8c6.6,0,12.2-4.5,14-10.4L101.9,26.2z"/>
</svg>
