<?xml version="1.0" encoding="utf-8"?>
<!-- Generator: Adobe Illustrator 18.1.1, SVG Export Plug-In . SVG Version: 6.00 Build 0)  -->
<svg version="1.1" id="Layer_1" xmlns="http://www.w3.org/2000/svg" xmlns:xlink="http://www.w3.org/1999/xlink" x="0px" y="0px"
	 viewBox="0 0 188 25.6" enable-background="new 0 0 188 25.6" xml:space="preserve">
<rect x="-187.9" y="0" fill="#FFD110" width="752.4" height="25.6"/>
<g>
	<path fill="#1C1C1C" d="M57.6,9.8c-0.4,0-0.7,0.2-0.7,0.6v2.3c0,0.5-0.2,0.8-0.7,0.9c0.5,0.1,0.7,0.4,0.7,0.9V17
		c0,0.2,0.1,0.3,0.2,0.4c0.1,0.1,0.3,0.1,0.6,0.1v1h-0.4c-1,0-1.4-0.5-1.4-1.4v-2.3c0-0.2,0-0.4-0.1-0.5c-0.1-0.1-0.2-0.1-0.4-0.1
		H55v-1h0.3c0.2,0,0.3,0,0.4-0.1c0.1-0.1,0.1-0.3,0.1-0.5v-2.2c0-0.9,0.5-1.4,1.4-1.4h0.4L57.6,9.8C57.6,9.8,57.6,9.8,57.6,9.8z"/>
	<path fill="#1C1C1C" d="M129.4,18.4H129v-1c0.3,0,0.5,0,0.6-0.1c0.1-0.1,0.2-0.2,0.2-0.4v-2.5c0-0.5,0.2-0.8,0.7-0.9
		c-0.5-0.1-0.7-0.4-0.7-0.9v-2.3c0-0.2-0.1-0.4-0.2-0.5c-0.1-0.1-0.2-0.1-0.3-0.1h0l-0.2,0v-1h0.4c1,0,1.4,0.5,1.4,1.4v2.2
		c0,0.2,0,0.4,0.1,0.5s0.2,0.1,0.4,0.1h0.3v1h-0.3c-0.2,0-0.3,0-0.4,0.1c-0.1,0.1-0.1,0.3-0.1,0.5V17
		C130.8,18,130.3,18.4,129.4,18.4z"/>
</g>
<g>
	<path fill="#1C1C1C" d="M89.3,17.1V9.6h1.3v6.3H94v1.2H89.3z"/>
	<path fill="#1C1C1C" d="M102.5,16.1c-0.8,0.7-1.7,1.1-2.8,1.1s-2-0.4-2.8-1.1c-0.8-0.7-1.1-1.7-1.1-2.8s0.4-2,1.1-2.8
		s1.7-1.1,2.8-1.1s2,0.4,2.8,1.1s1.1,1.7,1.1,2.8S103.3,15.4,102.5,16.1z M101.6,11.4c-0.5-0.5-1.1-0.8-1.9-0.8s-1.4,0.3-1.9,0.8
		c-0.5,0.5-0.8,1.2-0.8,1.9s0.3,1.4,0.8,1.9c0.5,0.5,1.1,0.8,1.9,0.8s1.4-0.3,1.9-0.8c0.5-0.5,0.8-1.2,0.8-1.9
		S102.1,11.9,101.6,11.4z"/>
	<path fill="#1C1C1C" d="M107.2,15.4l-0.7,1.7h-1.3l3.3-7.5h1.3l3.3,7.5h-1.3l-0.8-1.7H107.2z M110.4,14.3l-1.4-3.1l-1.4,3.1H110.4z
		"/>
	<path fill="#1C1C1C" d="M120.8,10.6c0.7,0.7,1.1,1.6,1.1,2.7c0,1.2-0.3,2.1-1,2.8c-0.7,0.7-1.8,1-3.2,1h-2.5V9.6h2.6
		C119.1,9.6,120.1,10,120.8,10.6z M120.6,13.4c0-1.7-1-2.6-2.9-2.6h-1.3v5.1h1.4c0.9,0,1.6-0.2,2.1-0.6S120.6,14.2,120.6,13.4z"/>
</g>
<g>
	<g>
		<g>
			<path fill="#1C1C1C" d="M76.2,20h-8.6c-0.4,0-0.7-0.3-0.7-0.7v-2.6c0-0.4,0.3-0.7,0.7-0.7c0.4,0,0.7,0.3,0.7,0.7v1.9h7.3v-1.9
				c0-0.4,0.3-0.7,0.7-0.7s0.7,0.3,0.7,0.7v2.6C76.9,19.7,76.6,20,76.2,20z"/>
		</g>
	</g>
	<g>
		<g>
			<g>
				<path fill="#1C1C1C" d="M71.9,14.3c-0.1,0-0.2,0-0.3-0.1c-0.3-0.1-0.4-0.4-0.4-0.6V6.9c0-0.4,0.3-0.7,0.7-0.7
					c0.4,0,0.7,0.3,0.7,0.7V12l1.3-1.3c0.3-0.3,0.7-0.3,1,0c0.3,0.3,0.3,0.7,0,1l-2.5,2.5C72.2,14.3,72.1,14.3,71.9,14.3z"/>
			</g>
			<g>
				<path fill="#1C1C1C" d="M71.9,14.3c-0.2,0-0.4-0.1-0.5-0.2L69,11.7c-0.3-0.3-0.3-0.7,0-1c0.3-0.3,0.7-0.3,1,0l2.4,2.4
					c0.3,0.3,0.3,0.7,0,1C72.2,14.3,72.1,14.3,71.9,14.3z"/>
			</g>
		</g>
	</g>
	<g>
		<g>
			<rect x="69.4" y="16.6" fill="#1C1C1C" width="5" height="1"/>
		</g>
	</g>
	<g>
		<g>
			<rect x="69.4" y="15.5" fill="#1C1C1C" width="5" height="0.3"/>
		</g>
	</g>
</g>
</svg>
