<?xml version="1.0" encoding="utf-8"?>
<!-- Generator: Adobe Illustrator 18.1.1, SVG Export Plug-In . SVG Version: 6.00 Build 0)  -->
<svg version="1.1" id="Layer_1" xmlns="http://www.w3.org/2000/svg" xmlns:xlink="http://www.w3.org/1999/xlink" x="0px" y="0px"
	 viewBox="0 0 111.5 32" enable-background="new 0 0 111.5 32" xml:space="preserve">
<g>
	<path fill="#FFD110" d="M-334.1,20.6c0,6.5,5.3,11.8,11.9,11.8h434.5V20c0-10.9-8.9-19.7-19.9-19.7h-426.5V20.6z"/>
</g>
<g>
	<defs>
		<path id="SVGID_6_" d="M-334.1,20.6c0,6.5,5.3,11.8,13.5,11.8h430.3L107.9,20c0-10.9-8.8-19.7-17.9-19.7h-422.3L-334.1,20.6z"/>
	</defs>
	<clipPath id="SVGID_2_">
		<use xlink:href="#SVGID_6_"  overflow="visible"/>
	</clipPath>
	<g clip-path="url(#SVGID_2_)">
		<g opacity="0.7">
			<path fill="#283D3D" d="M0.4,44.1h-112.5V-9.8H0.4V44.1z M-111.1,43.1H-0.6V-8.8h-110.5V43.1z"/>
		</g>
		<g opacity="0.7">
			<path fill="#283D3D" d="M113.8,44.1H-0.6V-9.8h114.4V44.1z M0.4,43h112.4V-8.8H0.4V43z"/>
		</g>
	</g>
</g>
<g>
	<path fill="#283D3D" d="M36.9,11.1h1.6v7.6h4.7v1.4h-6.3V11.1z"/>
	<path fill="#283D3D" d="M45.3,15.6L45.3,15.6c0-2.6,2-4.7,4.7-4.7c2.8,0,4.7,2.1,4.7,4.6v0c0,2.5-2,4.7-4.7,4.7
		C47.2,20.3,45.3,18.2,45.3,15.6z M53.1,15.6L53.1,15.6c0-1.8-1.3-3.2-3.1-3.2c-1.8,0-3,1.4-3,3.2v0c0,1.8,1.3,3.2,3.1,3.2
		S53.1,17.4,53.1,15.6z"/>
	<path fill="#283D3D" d="M57.5,15.6L57.5,15.6c0-2.6,1.9-4.7,4.7-4.7c1.6,0,2.5,0.4,3.5,1.2l-1,1.2c-0.7-0.6-1.4-1-2.5-1
		c-1.7,0-2.9,1.5-2.9,3.2v0c0,1.9,1.2,3.2,3.1,3.2c0.9,0,1.6-0.3,2.2-0.7v-1.7h-2.3v-1.4H66v3.8c-0.9,0.8-2.2,1.4-3.8,1.4
		C59.4,20.3,57.5,18.2,57.5,15.6z"/>
</g>
</svg>
