<?xml version="1.0" encoding="utf-8"?>
<!-- Generator: Adobe Illustrator 18.1.1, SVG Export Plug-In . SVG Version: 6.00 Build 0)  -->
<svg version="1.1" id="Layer_1" xmlns="http://www.w3.org/2000/svg" xmlns:xlink="http://www.w3.org/1999/xlink" x="0px" y="0px"
	 viewBox="0 0 188 25.6" enable-background="new 0 0 188 25.6" xml:space="preserve">
<rect x="-563.9" y="0" fill="#FFD110" width="752.4" height="25.6"/>
<g>
	<path fill="#1C1C1C" d="M57.4,9.8c-0.4,0-0.7,0.2-0.7,0.6v2.3c0,0.5-0.2,0.8-0.7,0.9c0.5,0.1,0.7,0.4,0.7,0.9V17
		c0,0.2,0.1,0.3,0.2,0.4c0.1,0.1,0.3,0.1,0.6,0.1v1h-0.4c-1,0-1.4-0.5-1.4-1.4v-2.3c0-0.2,0-0.4-0.1-0.5c-0.1-0.1-0.2-0.1-0.4-0.1
		h-0.3v-1h0.3c0.2,0,0.3,0,0.4-0.1c0.1-0.1,0.1-0.3,0.1-0.5v-2.2c0-0.9,0.5-1.4,1.4-1.4h0.4L57.4,9.8C57.4,9.8,57.4,9.8,57.4,9.8z"
		/>
	<path fill="#1C1C1C" d="M131.9,18.4h-0.4v-1c0.3,0,0.5,0,0.6-0.1c0.1-0.1,0.2-0.2,0.2-0.4v-2.5c0-0.5,0.2-0.8,0.7-0.9
		c-0.5-0.1-0.7-0.4-0.7-0.9v-2.3c0-0.2-0.1-0.4-0.2-0.5c-0.1-0.1-0.2-0.1-0.3-0.1h0l-0.2,0v-1h0.4c1,0,1.4,0.5,1.4,1.4v2.2
		c0,0.2,0,0.4,0.1,0.5c0.1,0.1,0.2,0.1,0.4,0.1h0.3v1h-0.3c-0.2,0-0.3,0-0.4,0.1c-0.1,0.1-0.1,0.3-0.1,0.5V17
		C133.4,18,132.9,18.4,131.9,18.4z"/>
</g>
<g>
	<g>
		<g>
			<path fill="#1C1C1C" d="M89.9,9.6h1.4l2.3,3.5l2.3-3.5h1.4v7.5H96v-5.4l-2.4,3.5h0l-2.3-3.5v5.4h-1.3V9.6z"/>
			<path fill="#1C1C1C" d="M100.3,9.6h5.6v1.2h-4.2v2h3.8v1.2h-3.8v2h4.3v1.2h-5.6V9.6z"/>
			<path fill="#1C1C1C" d="M108.5,9.6h1.2l4,5.2V9.6h1.3v7.5H114l-4.1-5.3v5.3h-1.3V9.6z"/>
			<path fill="#1C1C1C" d="M118,13.9V9.6h1.3v4.3c0,1.4,0.7,2.1,1.9,2.1c1.2,0,1.9-0.7,1.9-2.1V9.6h1.3v4.3c0,2.2-1.3,3.4-3.2,3.4
				C119.2,17.2,118,16.1,118,13.9z"/>
		</g>
		<g>
			<g>
				<path fill="#1C1C1C" d="M77.1,20.7h-9.2c-1,0-1.9-0.8-1.9-1.9V8c0-1,0.8-1.9,1.9-1.9h9.2c1,0,1.9,0.8,1.9,1.9v10.9
					C79,19.9,78.1,20.7,77.1,20.7z M67.8,7.2c-0.4,0-0.7,0.3-0.7,0.7v10.9c0,0.4,0.3,0.7,0.7,0.7h9.2c0.4,0,0.7-0.3,0.7-0.7V8
					c0-0.4-0.3-0.7-0.7-0.7H67.8z"/>
			</g>
			<g>
				<path fill="#1C1C1C" d="M72.6,10.6c0,0.2-0.2,0.4-0.4,0.4h-2.9c-0.2,0-0.4-0.2-0.4-0.4v0c0-0.2,0.2-0.4,0.4-0.4h2.9
					C72.5,10.2,72.6,10.4,72.6,10.6L72.6,10.6z"/>
			</g>
			<g>
				<path fill="#1C1C1C" d="M76,15.4c0,0.2-0.2,0.4-0.4,0.4h-6.3c-0.2,0-0.4-0.2-0.4-0.4v0c0-0.2,0.2-0.4,0.4-0.4h6.3
					C75.9,15,76,15.2,76,15.4L76,15.4z"/>
			</g>
			<g>
				<path fill="#1C1C1C" d="M76,17.8c0,0.2-0.2,0.4-0.4,0.4h-2.1c-0.2,0-0.4-0.2-0.4-0.4v0c0-0.2,0.2-0.4,0.4-0.4h2.1
					C75.9,17.4,76,17.6,76,17.8L76,17.8z"/>
			</g>
			<g>
				<path fill="#1C1C1C" d="M76,10.6c0,0.2-0.2,0.4-0.4,0.4h-2.1c-0.2,0-0.4-0.2-0.4-0.4v0c0-0.2,0.2-0.4,0.4-0.4h2.1
					C75.9,10.2,76,10.4,76,10.6L76,10.6z"/>
			</g>
			<g>
				<path fill="#1C1C1C" d="M66.2,11.9v2.3h12.5v-2.3H66.2z M71,13.4h-1.7c-0.2,0-0.4-0.2-0.4-0.4c0-0.2,0.2-0.4,0.4-0.4H71
					c0.2,0,0.4,0.2,0.4,0.4C71.4,13.2,71.2,13.4,71,13.4z M75.7,13.4h-3.3c-0.2,0-0.4-0.2-0.4-0.4c0-0.2,0.2-0.4,0.4-0.4h3.3
					c0.2,0,0.4,0.2,0.4,0.4C76,13.2,75.9,13.4,75.7,13.4z"/>
			</g>
			<g>
				<path fill="#1C1C1C" d="M72.8,17.8c0,0.2-0.2,0.4-0.4,0.4h-3.1c-0.2,0-0.4-0.2-0.4-0.4v0c0-0.2,0.2-0.4,0.4-0.4h3.1
					C72.6,17.4,72.8,17.6,72.8,17.8L72.8,17.8z"/>
			</g>
			<g>
				<rect x="66.7" y="8.6" fill="#1C1C1C" width="11.7" height="0.4"/>
			</g>
		</g>
	</g>
</g>
</svg>
