<?xml version="1.0" encoding="utf-8"?>
<!-- Generator: Adobe Illustrator 18.1.1, SVG Export Plug-In . SVG Version: 6.00 Build 0)  -->
<svg version="1.1" id="Layer_1" xmlns="http://www.w3.org/2000/svg" xmlns:xlink="http://www.w3.org/1999/xlink" x="0px" y="0px"
	 viewBox="0 0 188 25.6" enable-background="new 0 0 188 25.6" xml:space="preserve">
<rect x="-563.9" y="0.1" opacity="0.7" fill="#283D3D" width="752.4" height="25.6"/>
<rect x="-563.9" y="0.1" opacity="0.7" fill="#283D3D" width="752.4" height="25.6"/>
<g>
	<path fill="#FFFFFF" d="M91.3,17.2H90V9.7h2l2.3,4.7l2.3-4.7h2v7.5h-1.3v-5.8l-2.6,5.2h-0.7l-2.6-5.2V17.2z"/>
	<path fill="#FFFFFF" d="M106.9,9.7v1.2h-4v2h3.6V14h-3.6v2h4.1v1.2h-5.4V9.7H106.9z"/>
	<path fill="#FFFFFF" d="M115.3,9.7h1.3v7.5h-1.4l-4.2-5.5v5.5h-1.3V9.7h1.3l4.3,5.6V9.7z"/>
	<path fill="#FFFFFF" d="M121.4,15.5c0.3,0.4,0.8,0.6,1.4,0.6c0.6,0,1-0.2,1.4-0.6c0.3-0.4,0.5-0.9,0.5-1.6V9.7h1.3v4.2
		c0,1.1-0.3,1.9-0.9,2.5s-1.4,0.9-2.3,0.9c-0.9,0-1.7-0.3-2.3-0.9c-0.6-0.6-0.9-1.4-0.9-2.5V9.7h1.3v4.1
		C120.9,14.5,121.1,15.1,121.4,15.5z"/>
</g>
<g>
	<path fill="none" stroke="#FFFFFF" stroke-width="1.1355" stroke-miterlimit="10" d="M78.4,18.9c0,0.7-0.6,1.3-1.3,1.3h-9.2
		c-0.7,0-1.3-0.6-1.3-1.3V8c0-0.7,0.6-1.3,1.3-1.3h9.2c0.7,0,1.3,0.6,1.3,1.3V18.9z"/>
	<path fill="#FFFFFF" d="M72.7,10.7c0,0.2-0.2,0.4-0.4,0.4h-2.9c-0.2,0-0.4-0.2-0.4-0.4v0c0-0.2,0.2-0.4,0.4-0.4h2.9
		C72.5,10.3,72.7,10.4,72.7,10.7L72.7,10.7z"/>
	<path fill="#FFFFFF" d="M76.1,15.5c0,0.2-0.2,0.4-0.4,0.4h-6.3c-0.2,0-0.4-0.2-0.4-0.4v0c0-0.2,0.2-0.4,0.4-0.4h6.3
		C75.9,15.1,76.1,15.2,76.1,15.5L76.1,15.5z"/>
	<path fill="#FFFFFF" d="M76.1,17.9c0,0.2-0.2,0.4-0.4,0.4h-2.1c-0.2,0-0.4-0.2-0.4-0.4v0c0-0.2,0.2-0.4,0.4-0.4h2.1
		C75.9,17.5,76.1,17.6,76.1,17.9L76.1,17.9z"/>
	<path fill="#FFFFFF" d="M76.1,10.7c0,0.2-0.2,0.4-0.4,0.4h-2.1c-0.2,0-0.4-0.2-0.4-0.4v0c0-0.2,0.2-0.4,0.4-0.4h2.1
		C75.9,10.3,76.1,10.4,76.1,10.7L76.1,10.7z"/>
	<path fill="#FFFFFF" d="M66.2,11.9v2.3h12.5v-2.3H66.2z M71,13.4h-1.7c-0.2,0-0.4-0.2-0.4-0.4c0-0.2,0.2-0.4,0.4-0.4H71
		c0.2,0,0.4,0.2,0.4,0.4C71.4,13.3,71.2,13.4,71,13.4z M75.7,13.4h-3.3c-0.2,0-0.4-0.2-0.4-0.4c0-0.2,0.2-0.4,0.4-0.4h3.3
		c0.2,0,0.4,0.2,0.4,0.4C76.1,13.3,75.9,13.4,75.7,13.4z"/>
	<path fill="#FFFFFF" d="M72.8,17.9c0,0.2-0.2,0.4-0.4,0.4h-3.1c-0.2,0-0.4-0.2-0.4-0.4v0c0-0.2,0.2-0.4,0.4-0.4h3.1
		C72.6,17.5,72.8,17.6,72.8,17.9L72.8,17.9z"/>
	<line fill="none" stroke="#FFFFFF" stroke-width="0.3785" stroke-miterlimit="10" x1="66.8" y1="8.8" x2="78.5" y2="8.8"/>
</g>
</svg>
