<?xml version="1.0" encoding="utf-8"?>
<!-- Generator: Adobe Illustrator 18.1.1, SVG Export Plug-In . SVG Version: 6.00 Build 0)  -->
<svg version="1.1" id="Layer_1" xmlns="http://www.w3.org/2000/svg" xmlns:xlink="http://www.w3.org/1999/xlink" x="0px" y="0px"
	 viewBox="0 0 112.7 51.3" enable-background="new 0 0 112.7 51.3" xml:space="preserve">
<text transform="matrix(1 0 0 1 45.448 30.2432)" fill="#FFD400" font-family="'Gotham-Medium'" font-size="10.9785" letter-spacing="1">NEXT</text>
<g>
	<g>
		<path fill="#FFCE00" d="M25.2,24.3c-1.9,2.5-1.4,6.1,1.2,8s6.1,1.4,8-1.2c1.9-2.5,1.4-6.1-1.2-8C30.6,21.2,27.1,21.8,25.2,24.3z
			 M33.4,30.4c-1.5,2-4.3,2.4-6.4,0.9S24.8,27,26.3,25c0.7-0.9,3-1.5,3-1.8c0,0,0,0,0,0c-2,1.6-1.1,3.9,0.5,5.1
			c1.4,1.1,3.3,0.9,4.5-0.3C34.3,28.9,33.9,29.7,33.4,30.4z"/>
		<path fill="#FFCE00" d="M33.8,22.3c1.3,1,2.1,2.3,2.5,3.7c0.3-0.5,0.5-1.2,0.5-1.9c0-2-1.6-3.6-3.6-3.6c-0.7,0-1.4,0.2-2,0.6
			C32.2,21.3,33.1,21.7,33.8,22.3z"/>
	</g>
</g>
<path fill="none" stroke="#FFD400" stroke-width="2" stroke-miterlimit="10" d="M99.9,26.2l-7.4-4.1C90.6,16.2,85,12,78.5,12H26.7
	c-8,0-14.5,6.2-14.5,14.3v-0.1c0,8,6.5,14.9,14.5,14.9h51.8c6.6,0,12.2-4.5,14-10.4L99.9,26.2z"/>
</svg>
