<?xml version="1.0" encoding="utf-8"?>
<!-- Generator: Adobe Illustrator 18.1.1, SVG Export Plug-In . SVG Version: 6.00 Build 0)  -->
<svg version="1.1" id="Layer_1" xmlns="http://www.w3.org/2000/svg" xmlns:xlink="http://www.w3.org/1999/xlink" x="0px" y="0px"
	 viewBox="0 0 188 25.6" enable-background="new 0 0 188 25.6" xml:space="preserve">
<rect x="0.1" y="0.1" opacity="0.7" fill="#283D3D" width="752.4" height="25.6"/>
<rect x="0.1" y="0.1" opacity="0.7" fill="#283D3D" width="752.4" height="25.6"/>
<g>
	<g>
		<g>
			<g>
				<path fill="#FFFFFF" d="M76,11.3c-1.4,0-2.5,1.1-2.5,2.5s1.1,2.5,2.5,2.5c1.4,0,2.5-1.1,2.5-2.5S77.4,11.3,76,11.3z M76,15.8
					c-1.1,0-1.9-0.9-1.9-1.9s0.9-1.9,1.9-1.9c1.1,0,1.9,0.9,1.9,1.9S77,15.8,76,15.8z"/>
			</g>
		</g>
		<g>
			<g>
				<g>
					<path fill="#FFFFFF" d="M76,20.8c-3.8,0-6.9-3.1-6.9-6.9s3.1-6.9,6.9-6.9s6.9,3.1,6.9,6.9S79.8,20.8,76,20.8z M76,7.7
						c-3.4,0-6.1,2.7-6.1,6.1S72.6,20,76,20s6.1-2.7,6.1-6.1S79.4,7.7,76,7.7z"/>
				</g>
				<g>
					<path fill="#FFFFFF" d="M76,7.1c3.7,0,6.8,3,6.8,6.8c0,3.7-3,6.8-6.8,6.8c-3.7,0-6.8-3-6.8-6.8C69.2,10.1,72.2,7.1,76,7.1
						 M76,20.1c3.5,0,6.3-2.8,6.3-6.3c0-3.5-2.8-6.3-6.3-6.3s-6.3,2.8-6.3,6.3C69.7,17.3,72.5,20.1,76,20.1 M76,6.7
						c-3.9,0-7.1,3.2-7.1,7.1c0,3.9,3.2,7.1,7.1,7.1s7.1-3.2,7.1-7.1C83.1,9.9,79.9,6.7,76,6.7L76,6.7z M76,19.8c-3.3,0-6-2.7-6-6
						s2.7-6,6-6s6,2.7,6,6S79.3,19.8,76,19.8L76,19.8z"/>
				</g>
			</g>
		</g>
		<g>
			<g>
				<path fill="#FFFFFF" d="M76,15c-0.6,0-1.2-0.5-1.2-1.2c0-0.6,0.5-1.2,1.2-1.2s1.2,0.5,1.2,1.2C77.2,14.5,76.6,15,76,15z
					 M76,12.8c-0.6,0-1.1,0.5-1.1,1.1c0,0.6,0.5,1.1,1.1,1.1c0.6,0,1.1-0.5,1.1-1.1C77,13.3,76.6,12.8,76,12.8z"/>
				<path fill="#FFFFFF" d="M76,15.1c-0.7,0-1.3-0.6-1.3-1.3s0.6-1.3,1.3-1.3c0.7,0,1.3,0.6,1.3,1.3S76.7,15.1,76,15.1z M76,12.9
					c-0.5,0-0.9,0.4-0.9,0.9s0.4,0.9,0.9,0.9s0.9-0.4,0.9-0.9S76.5,12.9,76,12.9z"/>
			</g>
		</g>
	</g>
	<g>
		<path fill="#FFFFFF" d="M72.1,11.3L71.7,11c0.8-1.1,1.9-1.9,3.3-2.2L75,9.3C73.8,9.5,72.8,10.3,72.1,11.3z"/>
	</g>
	<g>
		<path fill="#FFFFFF" d="M71.5,12.7L71,12.5c0.1-0.4,0.2-0.8,0.4-1.1l0.5,0.2C71.7,12,71.6,12.3,71.5,12.7z"/>
	</g>
	<g>
		<path fill="#FFFFFF" d="M71.3,13.5l-0.5,0c0-0.1,0-0.2,0-0.4l0.5,0.1C71.4,13.3,71.3,13.4,71.3,13.5z"/>
	</g>
</g>
<g>
	<path fill="#FFFFFF" d="M92.9,10.4c-0.4,0-0.7,0.1-0.9,0.2c-0.2,0.1-0.4,0.4-0.4,0.7c0,0.3,0.1,0.5,0.4,0.7
		c0.2,0.2,0.7,0.3,1.5,0.5c0.8,0.2,1.3,0.4,1.7,0.8s0.6,0.8,0.6,1.5s-0.2,1.2-0.7,1.6c-0.5,0.4-1.1,0.6-1.9,0.6
		c-1.2,0-2.2-0.4-3.1-1.2l0.8-1c0.8,0.7,1.5,1,2.4,1c0.4,0,0.7-0.1,1-0.3c0.2-0.2,0.4-0.4,0.4-0.7s-0.1-0.5-0.3-0.7
		c-0.2-0.2-0.6-0.3-1.2-0.4c-0.6-0.1-1-0.3-1.3-0.4c-0.3-0.1-0.5-0.3-0.8-0.4c-0.4-0.3-0.7-0.8-0.7-1.5c0-0.7,0.3-1.2,0.8-1.6
		s1.1-0.6,1.9-0.6c0.5,0,1,0.1,1.4,0.2c0.5,0.2,0.9,0.4,1.2,0.7l-0.7,1c-0.2-0.2-0.5-0.4-0.9-0.5C93.6,10.5,93.2,10.4,92.9,10.4z"/>
	<path fill="#FFFFFF" d="M99.4,15.2l-0.7,1.7h-1.3l3.3-7.5h1.3l3.3,7.5h-1.3l-0.8-1.7H99.4z M102.7,14.1l-1.4-3.1l-1.4,3.1H102.7z"
		/>
	<path fill="#FFFFFF" d="M110.4,16.9H109l-3-7.5h1.4l2.3,5.6l2.3-5.6h1.4L110.4,16.9z"/>
	<path fill="#FFFFFF" d="M120.8,9.4v1.2h-4v2h3.6v1.1h-3.6v2h4.1v1.2h-5.4V9.4H120.8z"/>
</g>
</svg>
