<?xml version="1.0" encoding="utf-8"?>
<!-- Generator: Adobe Illustrator 18.1.1, SVG Export Plug-In . SVG Version: 6.00 Build 0)  -->
<svg version="1.1" id="Layer_1" xmlns="http://www.w3.org/2000/svg" xmlns:xlink="http://www.w3.org/1999/xlink" x="0px" y="0px"
	 viewBox="0 0 111.5 32" enable-background="new 0 0 111.5 32" xml:space="preserve">
<g>
	<path fill="#FFD110" d="M-222.6,20.6c0,6.5,5.3,11.8,11.9,11.8h434.5V20c0-10.9-8.9-19.7-19.9-19.7h-426.5V20.6z"/>
</g>
<g>
	<defs>
		<path id="SVGID_6_" d="M-222.6,20.6c0,6.5,5.3,11.8,13.5,11.8h430.3L219.4,20c0-10.9-8.8-19.7-17.9-19.7h-422.3L-222.6,20.6z"/>
	</defs>
	<clipPath id="SVGID_2_">
		<use xlink:href="#SVGID_6_"  overflow="visible"/>
	</clipPath>
	<g clip-path="url(#SVGID_2_)">
		<g opacity="0.7">
			<path fill="#283D3D" d="M0.6,44.1H-112V-9.8H0.6V44.1z M-111,43.1H-0.4V-8.8H-111V43.1z"/>
		</g>
		<g opacity="0.7">
			<path fill="#283D3D" d="M111.9,44.1H-0.6V-9.8h112.5V44.1z M0.4,43.1h110.5V-8.8H0.4V43.1z"/>
		</g>
		<g opacity="0.7">
			<path fill="#283D3D" d="M225.3,44.1H110.9V-9.8h114.4V44.1z M111.9,43h112.4V-8.8H111.9V43z"/>
		</g>
	</g>
</g>
<g>
	<path fill="#283D3D" d="M28.8,18.8l1-1.1c0.9,0.7,1.7,1.2,2.8,1.2c1,0,1.6-0.5,1.6-1.1v0c0-0.6-0.4-1-2-1.4c-1.9-0.5-3-1-3-2.7v0
		c0-1.5,1.3-2.6,3.1-2.6c1.3,0,2.4,0.4,3.3,1.1l-0.9,1.2c-0.8-0.6-1.6-0.9-2.4-0.9c-0.9,0-1.5,0.5-1.5,1.1v0c0,0.7,0.4,1,2.2,1.4
		c1.9,0.5,2.9,1.1,2.9,2.6v0c0,1.7-1.3,2.7-3.2,2.7C31.2,20.2,29.9,19.8,28.8,18.8z"/>
	<path fill="#283D3D" d="M38.6,15.6L38.6,15.6c0-2.6,1.9-4.7,4.7-4.7c1.7,0,2.7,0.6,3.5,1.4l-1,1.2c-0.7-0.7-1.5-1.1-2.5-1.1
		c-1.7,0-3,1.4-3,3.2v0c0,1.8,1.3,3.2,3,3.2c1.1,0,1.8-0.4,2.6-1.2l1,1c-0.9,1-2,1.6-3.7,1.6C40.5,20.3,38.6,18.2,38.6,15.6z"/>
	<path fill="#283D3D" d="M49.8,11.1h6.7v1.4h-5.1v2.3h4.5v1.4h-4.5v2.4h5.2v1.4h-6.8V11.1z"/>
	<path fill="#283D3D" d="M59.7,11.1h1.5l4.8,6.2v-6.2h1.6v9h-1.3l-5-6.4v6.4h-1.6V11.1z"/>
	<path fill="#283D3D" d="M71.2,11.1h6.7v1.4h-5.1v2.3h4.5v1.4h-4.5v2.4h5.2v1.4h-6.8V11.1z"/>
</g>
</svg>
