<?xml version="1.0" encoding="utf-8"?>
<!-- Generator: Adobe Illustrator 18.1.1, SVG Export Plug-In . SVG Version: 6.00 Build 0)  -->
<svg version="1.1" id="Layer_1" xmlns="http://www.w3.org/2000/svg" xmlns:xlink="http://www.w3.org/1999/xlink" x="0px" y="0px"
	 viewBox="0 0 111.5 32" enable-background="new 0 0 111.5 32" xml:space="preserve">
<g>
	<path fill="#FFD110" d="M0.4,20.6c0,6.5,5.3,11.8,11.9,11.8h434.5V20c0-10.9-8.9-19.7-19.9-19.7H0.4V20.6z"/>
</g>
<g>
	<defs>
		<path id="SVGID_6_" d="M0.4,20.6c0,6.5,5.3,11.8,13.5,11.8h430.3L442.4,20c0-10.9-8.8-19.7-17.9-19.7H2.2L0.4,20.6z"/>
	</defs>
	<clipPath id="SVGID_2_">
		<use xlink:href="#SVGID_6_"  overflow="visible"/>
	</clipPath>
	<g clip-path="url(#SVGID_2_)">
		<g opacity="0.7">
			<path fill="#283D3D" d="M112,44.1H-3.8V-9.8H112V44.1z M-2.8,43H111V-8.8H-2.8V43z"/>
		</g>
		<g opacity="0.7">
			<path fill="#283D3D" d="M223.6,44.1H111V-9.8h112.6V44.1z M112,43.1h110.6V-8.8H112V43.1z"/>
		</g>
	</g>
</g>
<g>
	<path fill="#283D3D" d="M43.3,19l1-1.1c0.9,0.7,1.7,1.2,2.8,1.2c1,0,1.6-0.5,1.6-1.1v0c0-0.6-0.4-1-2-1.4c-1.9-0.5-3-1-3-2.7v0
		c0-1.5,1.3-2.6,3.1-2.6c1.3,0,2.4,0.4,3.3,1.1l-0.9,1.2c-0.8-0.6-1.6-0.9-2.4-0.9c-0.9,0-1.5,0.5-1.5,1.1v0c0,0.7,0.4,1,2.2,1.4
		c1.9,0.5,2.9,1.1,2.9,2.6v0c0,1.7-1.3,2.7-3.2,2.7C45.7,20.5,44.4,20,43.3,19z"/>
	<path fill="#283D3D" d="M53.5,11.3h1.6v4.5l4.3-4.5h2l-3.8,3.9l3.9,5.1h-1.9l-3.1-4.1l-1.4,1.4v2.6h-1.6V11.3z"/>
	<path fill="#283D3D" d="M64.2,11.3h1.6v9h-1.6V11.3z"/>
	<path fill="#283D3D" d="M69.5,11.3h3.6c2.1,0,3.4,1.2,3.4,3v0c0,2-1.6,3.1-3.6,3.1h-1.8v2.9h-1.6V11.3z M72.9,16
		c1.2,0,1.9-0.7,1.9-1.6v0c0-1.1-0.8-1.6-1.9-1.6h-1.8V16H72.9z"/>
</g>
</svg>
