<?xml version="1.0" encoding="utf-8"?>
<!-- Generator: Adobe Illustrator 18.1.1, SVG Export Plug-In . SVG Version: 6.00 Build 0)  -->
<svg version="1.1" id="Layer_1" xmlns="http://www.w3.org/2000/svg" xmlns:xlink="http://www.w3.org/1999/xlink" x="0px" y="0px"
	 viewBox="0 0 496.6 191.2" enable-background="new 0 0 496.6 191.2" xml:space="preserve">
<g>
	<g>
		
			<text transform="matrix(1 0 0 1 195.7664 162.5225)" fill="#FFFFFF" font-family="'ACaslonPro-Italic'" font-size="24.4438" letter-spacing="2">after dark</text>
		<g>
			<text transform="matrix(1 0 0 1 21.4812 130.1914)"><tspan x="0" y="0" fill="#FFCE00" font-family="'Gotham-Medium'" font-size="44.8769" letter-spacing="4">{</tspan><tspan x="26.3" y="0" fill="#FFFFFF" font-family="'Gotham-Medium'" font-size="44.8769" letter-spacing="4"> Hackathons </tspan><tspan x="443.3" y="0" fill="#FFCE00" font-family="'Gotham-Medium'" font-size="44.8769" letter-spacing="4">}</tspan></text>
		</g>
	</g>
	<g>
		<path fill="#FFCE00" d="M227.8,35.1c-9,12.1-6.5,29.1,5.6,38.1s29.1,6.5,38.1-5.6s6.5-29.1-5.6-38.1
			C253.9,20.5,236.8,23,227.8,35.1z M267,64.3c-7.1,9.6-20.7,11.6-30.3,4.5s-11.6-20.7-4.5-30.3c3.3-4.5,8.4-7.1,13.1-8.3
			c0,0,0,0,0,0c-5.7,7.7-4.1,18.6,3.6,24.3c6.8,5.1,16.2,4.4,22.2-1.2C270.9,57.1,269.5,60.9,267,64.3z"/>
		<path fill="#FFCE00" d="M269.1,25.4c6.1,4.6,10.2,10.9,12,17.7c1.6-2.6,2.5-5.6,2.5-8.9c0-9.5-7.7-17.2-17.2-17.2
			c-3.5,0-6.7,1-9.4,2.8C261.2,20.8,265.3,22.6,269.1,25.4z"/>
	</g>
</g>
</svg>
